<?xml version="1.0" standalone="no"?>
<!DOCTYPE svg PUBLIC "-//W3C//DTD SVG 1.1//EN" "http://www.w3.org/Graphics/SVG/1.1/DTD/svg11.dtd">
<svg xmlns="http://www.w3.org/2000/svg">
<metadata>Generated by Fontastic.me</metadata>
<defs>
<font id="custom-icon" horiz-adv-x="512">
<font-face font-family="custom-icon" units-per-em="512" ascent="480" descent="-32"/>
<missing-glyph horiz-adv-x="512" />

<glyph glyph-name="advertisment" unicode="&#52;" d="M28 440c-8-3-13-9-17-17-2-6-2-22-2-126 0-76 0-123 1-127 2-7 11-16 19-19 4-2 13-3 36-3l31 0 0-6c0-3 0-21 0-38-1-30 0-32 3-36 2-2 6-3 9-3 4 0 10 5 47 42l42 41 139 0c138 0 139 0 147 4 4 2 9 7 12 11l4 7 0 253-4 6c-3 4-8 8-13 10l-8 5-220 0c-209 0-219 0-226-4z m383-76c19-4 35-13 33-19-1-5-14-21-16-21-1 0-7 2-12 5-18 7-37 4-37-6 0-5 2-6 23-11 33-8 44-17 49-34 4-19-6-38-25-46-11-5-32-6-49-3-16 4-35 13-35 18-1 3 12 20 17 23 2 1 7-1 14-4 10-5 14-6 26-6 14 0 19 2 19 8 0 5-9 10-26 14-18 4-34 11-40 17-14 15-11 41 5 53 16 11 33 15 54 12z m-278-5c2-2 7-14 14-32 5-16 14-43 20-60 8-23 11-31 9-33-1-2-5-3-15-3-16-1-17 0-21 13l-3 8-19 0-20 1-3-10c-2-5-4-10-6-11-4-2-24-2-28-1-2 1-3 3-3 5 0 3 8 26 17 53 10 28 19 54 21 60 4 11 6 12 22 13 8 0 12-1 15-3z m127 1c20-4 38-18 47-37 4-9 4-12 4-27 0-15 0-18-4-27-6-13-18-26-32-32-11-6-11-6-40-6-25-1-29-1-32 2-3 3-3 6-3 63 0 57 0 59 3 62 3 3 6 4 25 4 12 0 27-1 32-2z m-148-59c-2-9-4-16-4-17 0 0 4-1 10-1 5 0 10 1 10 1 0 3-9 29-10 31-1 0-3-6-6-14z m122-5l0-31 10 0c6 0 13 1 16 2 7 3 16 13 18 21 4 23-10 40-34 40l-10 0z"/>
<glyph glyph-name="house" unicode="&#53;" d="M256 388c-67-58-59-50-54-57 5-6 8-6 14 0 7 8 9 7 8-3l-1-9 49-43 48-44 36 0 37 0 0 53 0 53 16-13 5 4c2 2 4 5 4 7 0 1-6 7-13 13l-12 11-1 36 0 37-36 0-1-19c0-11-1-20-1-20-1 0-9 7-19 16-10 9-20 18-23 20l-4 3z m77-60l0-21-41 0 0 41 41 0z m-214-44c-14-12-45-38-68-58-23-19-42-36-42-37-1-1 11-13 13-13 1 0 5 3 10 7l10 8 0-56 1-56 73 0 0 47c0 42 0 48 3 49 1 0 14 1 28 1 21 0 26-1 28-3 2-2 2-9 2-49l0-45 292 0 1 56 0 56 10-8 10-8 7 7c3 4 6 7 6 8 0 0-21 18-46 40l-45 38 0-27-1-26-99 0-32 29c-17 15-41 36-52 46l-19 17-32 0-31 0z m151-132c0-4 0-13 0-20l0-12-21 0-20-1 0 20c0 11 0 20 1 20 0 1 10 1 20 1l20 0z m77-4c0-7 0-16 0-20l-1-9-41 0 0 20c0 11 1 20 2 20 0 1 10 1 20 1l20 0z m76-8l0-21-42 0 0 41 42 0z"/>
<glyph glyph-name="other-service" unicode="&#54;" d="M350 491c-56-15-95-75-84-131 1-6 1-7-11-19l-13-13 32-32c20-20 33-31 35-31 11 3 35 2 47 0 85-16 155 55 138 138-2 8-3 14-4 15 0 0-14-14-32-31-35-35-42-41-59-43-29-2-53 20-53 50 1 18 4 22 41 60 18 18 33 34 32 34-5 6-50 8-69 3z m38-13c1 0 0-1-1-1-2 0-3-1-2-3 1-2 1-2-1-1-1 0-2 0-2-1 0-1 0-2 0-3 0-1-1-2-2-2-2 0-8-6-7-7 1-1-2-2-4-3-3-1-5-2-5-3 0-2-5-9-6-8 0 0-3-2-5-5-2-4-5-6-5-6-1 0-2-2-2-3 0-2 0-2-1-2-1 1-2 0-2-1 0-2-1-3-2-3-1-1-2-2-2-3-1-6-3-12-5-13-3-1-2-37 1-37 1 0 1-1 0-2 0 0 0-2 1-2 1-1 2-3 2-5 0-3 1-5 2-5 1-1 1 0 0 2 0 2 1 1 2-2 6-8 21-22 26-23 2 0 4-1 4-2 0-6 43-5 46 0 1 2 2 2 3 2 4 1 9 3 9 5 0 1 1 1 2 1 1 0 4 3 7 5 3 3 7 6 8 6 3 0 4 1 4 4 0 3 1 5 3 5 2 1 4 3 5 5 1 3 2 4 3 4 1-1 2 0 3 2 2 2 4 3 5 2 1 0 1 0 1 2-1 2 3 7 7 9 2 0 3 0 3-2 0-2 0-2-2-1-1 0-1 0 0-1 3-5 2-29-1-27-1 1-1-1-1-4 0-2 0-5 0-6-1-1-2-2-2-3 0-3-6-15-8-15 0 0-1-1-1-3 0-1-1-2-2-2-1 0-1-1-1-2 0-1-2-4-5-6-2-3-4-5-3-6 0-1-1-1-3-1-2 1-3 0-2-1 0 0-1-2-4-3-2-1-4-3-4-4 0-1-1-1-2 1-1 2-1 2-1 0 0-2-2-5-4-7-2-2-3-4-3-2 1 1-2 0-7-2-21-11-46-13-79-7-11 2-18 2-22 1-7-2-18 1-20 4 0 1-2 2-3 2-1 0-3 2-4 4-1 2-6 8-11 12-4 5-7 9-7 10 0 1-1 1-3 1-2-1-3-1-3 1 0 2-1 4-2 4-5 3-5 8-1 12 2 2 3 5 3 7 0 1 1 2 2 2 4 0 6 17 4 39 0 3 0 6 1 6 1 0 1 1 0 3 0 1 0 6 2 10 1 5 2 10 2 11 2 7 5 13 6 13 1 0 2 1 1 2 0 2 10 19 11 18 1-1 2 0 2 1 0 1 2 4 5 6 3 2 5 4 5 4 0 3 7 8 9 8 1-1 3 1 6 3 3 3 5 4 5 3 1-2 2-1 3 1 1 1 4 2 6 2 2 1 3 1 3 2 0 1 1 1 3 0 1 0 3 1 5 2 1 2 3 3 3 2 0 0 2 0 4 1 6 1 26 1 27-1z m-357-12c-15-15-15-13 18-63 24-37 33-44 57-44l8 0 153-153-4-5c-5-10-4-36 2-49 7-15 113-121 128-128 15-7 38-7 53-1 30 15 44 53 30 83-7 15-113 121-128 128-14 7-32 8-46 3l-10-3-76 76c-45 45-76 77-75 78 2 3-6 28-11 35-3 5-14 13-40 31-44 28-44 28-59 12z m15-8c-1-1-2-1-1-1 1 0 3 0 4 1 2 3 11 0 11-3 0-1 1-1 1-1 1 1 2 0 2-1 0-1 1-1 1-1 3 0 8-3 7-4-1-1 0-2 1-2 2 0 22-12 24-14 1-2 2-2 3-2 2 1 2-1 2-4 0-1 2-2 4-3 6-1 14-10 14-15 0-1 1-2 2-2 1 0 2-1 2-2-1 0 0-2 0-4 1-1 2-4 2-7 1-3 1-5 1-5 0 0 1-2 1-3 1-3 9-16 12-17 0 0 1-1 1-2 0-1 3-4 6-7 3-4 5-7 5-7-1-1 0-1 1-1 1 0 1-1 1-2-1-1-1-2 0-1 1 1 3 0 4-1 0-2 2-3 3-3 1 0 2-1 3-3 1-2 4-5 7-8 3-3 5-6 5-7-1 0 1-1 4-1 5-2 8-5 6-8 0-1 0-2 1-3 1-1 2 0 1 1-1 1 0 2 0 2 1 0 3-2 3-4 1-1 3-3 5-4 1-1 3-3 4-5 1-2 2-4 3-4 3 0 10-7 9-9-1-1-1-2 0-1 2 2 9-6 8-8-1-1 0-1 1 0 2 1 12-9 11-12-1-1 0-1 1 0 2 1 9-6 8-8-1-1 1-2 5-2 1 1 0-1-1-2-2-3-2-3 0-2 3 0 23-19 23-22-1 0 0-1 1 0 1 0 2 0 3-1 1-2 4-4 6-5 3-2 5-4 5-5 0-1 0-2 2-1 1 0 3 0 4-1 1-1 2-2 2-1 0 1 2 0 4-1 2-1 3-1 3 0 0 1 2 2 5 1 3 0 5 0 5 1 0 1 7 1 14 1 17 0 28-4 33-13 2-2 4-5 5-5 0 0 6-4 11-10 6-6 11-10 12-11 1 0 4-3 7-7 4-4 7-7 8-8 1 0 1-2 1-3 0-1 1-2 1-1 2 0 8-5 9-8 1-2 2-3 3-2 1 0 2 0 2-1-1-1 2-3 5-6 3-3 5-5 4-6 0-1 0-2 1-1 1 0 3-1 5-3 3-1 4-3 3-3-1 0 2-3 6-7 13-13 24-26 24-29 0-3 1-6 2-7 3-4 4-9 1-10-1 0-1-5-2-11 0-9-1-12-4-14-1-1-2-2-2-2 1 0 1-2 0-3-1-2-3-4-3-4-3 1-9-3-8-5 0-1-2-2-4-3-3-2-4-2-4 0 0 2-1 3-2 3 0 0-1-2 0-3 1-4-27-6-29-2-1 0-4 2-7 2-3 1-5 2-4 3 0 0-2 3-6 5-4 2-7 5-8 7-1 2-3 3-4 3-1 0-2 0-2 1-1 3-22 25-25 25-1 0-2 1-2 2 0 2-24 26-26 26 0 0-2 1-3 2-2 2-2 3 0 2 2-2 2-1 0 1-1 1-2 2-3 2-1 0-2 1-2 1 0 1-2 4-6 7-3 4-5 7-5 7 1 1 0 1-1 0-2-1-4 0-4 4-1 2-2 4-3 3-2-1-7 3-7 6 0 2-1 4-3 6-4 4-6 9-8 18-2 12-2 16 0 24 3 12-3 32-10 32-2 0-2 1-2 2 1 2-13 17-16 17-1 0-1 1-1 2 1 1-1 3-4 5-3 2-5 5-4 5 0 1 0 2-1 2-4-1-5 0-5 4 1 2 1 2 0 1 0-1-2-1-5 2-3 2-5 5-5 6 1 1 1 2 0 1-3-1-9 7-8 10 0 2 0 3-1 3-1 0-2-1-2-3 0-1 0-2-1-2-1 0-2 1-2 1 1 2-16 21-19 21 0 0-2 2-3 4-2 3-4 5-5 5-1 0-2 1-1 3 0 2-1 3-3 3-2 0-4 1-5 3-1 1-3 2-4 1-1 0-1 1 1 3 1 1 1 2 1 2-1-1-5 2-9 6-4 4-9 8-10 8-1 0-1 0 0 1 0 1 0 2-2 2-1 0-3 1-3 1 0 3-11 14-14 14-2 0-9 7-8 9 0 1 0 1-1 1-1 0-4 1-7 3-3 2-5 2-5 1 1-1 1-2 0-2-2 0-7 5-7 6 0 0 0-1-1-2-3-2-8-1-7 2 1 1 0 1-1 0-2-2-3-2-3-1 0 2-11 8-14 7-1 0-2 1-1 3 1 1 0 2 0 2-2 0-11 12-11 14 0 1 0 2-1 2-1 0-3 3-5 6-1 3-4 7-6 9-2 2-3 4-1 4 1 0 1 0 0 2-1 1-3 2-4 2-2-1-4 2-4 7-1 1-2 4-3 6-2 1-3 4-3 5 0 2-1 3-1 3-1 0-2 1-2 3 0 1 1 2 2 1 0 0 1 0 1 2 0 2 3 6 6 6 1 0 1-1-1-2z m55-271c-82-83-80-80-80-107 0-37 24-61 60-61 27 0 24-2 92 65l60 60 0 22c0 12 1 23 1 25 0 2-60 66-62 66 0 0-32-32-71-70z m75 44c0-1 1-1 2-1 2 0 3-1 3-2 0-1 3-4 6-8 4-4 6-7 6-8 0 0 1-1 1-1 1 1 4-2 8-5 13-13 17-19 15-23 0-2-1-10-1-18 0-8-1-15-1-16 0-4-7-10-9-9-1 1-1 1-1 0 1-2-12-14-14-14-1 0-2-1-2-3 0-3-9-11-11-10 0 1-1 1 0 0 0-2-4-6-8-11-5-5-9-9-8-10 0 0-1-1-2-1-2 0-5-3-8-6-2-4-5-7-6-7-1 0-4-3-7-6-3-3-6-6-7-6-1 0-3-2-3-4-1-1-2-3-4-3-1 0-2 0-2-1 2-1-4-6-7-6-1 0 0 2 2 4 2 1 3 3 3 3-1 0-1 1 0 3 4 8 5 26 1 30-1 2-2 5-2 7 1 2 1 3 0 2-1-1-14 11-13 13 0 1 0 1-1 1-2-1-9 2-9 4 0 1 0 1-1 1-1-1-5 0-9 1-7 2-8 2-14-1-3-1-7-2-7-2-1 1-1 0-1-1 0-1-2-2-4-2-3 0-5 0-5-1 0-1-1-2-2-1-2 1-3 2-3 3 0 1 1 1 1 0 1 0 3 1 4 3 1 2 3 3 5 3 1-1 2-1 1 0 0 1 1 2 2 4 1 1 2 2 2 3-1 1 0 2 1 2 2 0 3 0 2 1 0 1 1 3 2 4 3 3 4 3 8 3 2 0 2 1 0 2-2 1-1 2 2 3 2 1 4 3 4 4 0 2 10 11 15 14 3 2 4 3 2 3-1 0 0 2 4 5 3 3 6 6 7 5 1 0 1 1 1 2 0 2 21 23 23 22 1 0 1 1 1 2 0 3 14 15 16 14 0 0 2 1 2 3 2 8 20 19 20 13z m-122-121c0-1-1-2-3-2-2-1-3-2-2-3 0 0-1-1-2-1-1 0-2 1-1 2 0 1 1 2 1 3 0 1 0 2 1 2 0 2 5 1 6-1z m43-8c22-16 13-48-13-49-29-2-40 35-15 50 8 5 21 4 28-1z"/>
<glyph glyph-name="tourist" unicode="&#55;" d="M72 500l0-12 6-1c4 0 18-1 33-2l26-1 0 24-15 1c-9 1-23 2-33 2l-17 1z m-3-23c-7-15-4-31 8-42 22-21 55-10 62 20 2 8-2 23-6 24-1 0-16 1-32 2l-30 1z m291-17c-1-1-2-4-2-8 0-6 0-6-5-7-7-2-12-9-12-17 0-6 0-6-10-9-33-9-59-34-70-65-2-6-3-12-3-15 0-3-1-2-8 4-7 6-8 7-17 7-7 0-9 0-9 2 0 2-2 3-7 3-4 0-7-1-8-3 0-1-2-2-5-2-7 0-36 8-49 14l-13 5-1 10c-4 30-29 45-54 32-7-3-14-11-17-17-1-3-1-32-1-81l1-77 6-1c3-1 19-2 36-2l31-1 0 42c0 39 1 42 3 41 20-5 38-10 48-11 10-1 12-2 12-5 1-3 2-4 8-4 5 0 6 1 6 4 0 3-1 3-7 3l-7 0 1 14c1 8 1 19 1 24l0 10 16 0-2-24c-1-27-2-25 16-22 5 1 11 3 13 4 1 1 3 3 4 3 0 0 1-53 1-116l0-116 214 0-1 131-1 132-4 13c-12 31-38 55-69 64-11 3-11 3-11 9 0 8-5 15-12 17-4 0-5 2-5 6 0 8-4 13-7 9z m29-58c29-9 52-31 59-59 2-8 3-33 3-127l0-119-176 0 0 119c0 97 0 121 2 127 9 29 29 49 57 58 13 4 42 5 55 1z m-102-165l0-68 53 0 0 136-53 0z m92 8l0-8-31 0 0-68 89 0 0 68-27 0 0 16-31 0z m24-3c0-5 0-5-10-5-9 0-9 0-9 5 0 5 0 5 9 5 10 0 10 0 10-5z m-111-111l0-18 145 0 0 37-145 0z m-222 79c1-13 2-16 7-26 4-6 8-16 9-22 3-9 3-12 1-19-3-11-12-35-25-65-14-32-20-49-19-58 3-18 27-26 39-14 3 3 7 12 10 20 3 9 13 31 23 50 9 19 19 43 22 52l6 17 6-7c21-27 36-61 41-96 2-10 4-20 6-23 7-18 34-20 43-3 5 10-4 53-17 86-15 39-41 73-72 101-6 4-7 6-7 12l0 6-24 2c-13 0-30 1-37 2l-13 1z m225-153c-8-5-14-16-13-25 2-9 7-15 14-19 10-4 20-3 27 5 20 20-3 52-28 39z m108 0c-16-8-18-30-4-41 9-8 23-7 32 3 4 4 5 7 6 15 0 9 0 10-5 15-8 10-19 13-29 8z"/>
<glyph glyph-name="apartment" unicode="&#33;" d="M5 256l0-251 502 0 0 341-224 0 0 161-278 0z m256 0l0-229-73 0 0 5c-1 3-1 26-1 52l0 48-43 1-43 0 0-106-74 0 0 458 234 0z m224-79l0-150-202 0 0 299 202 0z m-320-107l1-43-43 0 0 86 21-1 21 0z m-117 383l0-11 29 0 0 22-29 0z m54 0l0-11 29 0 0 22-29 0z m55 0l0-11 29 0 0 22-29 0z m55 0l0-11 14 0 14 1 0 11 1 10-29 0z m-164-45l1-11 14-1 14 0 0 22-29 0z m54-1l0-11 15 0 14 1 0 11 1 10-30 0z m55 0l0-11 29 0 0 22-29 0z m55 0l0-11 14 0 14 1 0 11 1 10-29 0z m-164-45l0-10 29 0 0 20-29 0z m54 0l0-10 29 0 0 20-29 0z m55 0l0-10 29 0 0 20-29 0z m55 0l0-10 29 0 0 20-29 0z m-164-46l0-11 29 0 0 21-29 0z m54 0l0-11 29 0 0 21-29 0z m55 0l0-11 29 0 0 21-29 0z m55 0l0-11 29 0 0 21-29 0z m-163-36c-1 0-1-5-1-11l0-10 29 0 0 22-14 0c-7 0-14 0-14-1z m54 0c0 0-1-5-1-11l0-10 30 0-1 11 0 11-13 0c-8 0-14 0-15-1z m54-9l0-12 29 0 0 11-1 11-14 0-14 1z m56 10c-1-1-1-6-1-12l0-10 29 0-1 11 0 11-13 0c-7 0-13 0-14 0z m-165-57l0-11 29 0 0 23-29 0z m54 0l0-11 29 0 0 23-29 0z m55 0l0-11 29 0 0 23-29 0z m55 0l0-11 29 0-1 11 0 11-14 0-14 1z m-164-45l0-10 29 0 0 20-29 0z m54 0l0-10 29 0 0 20-29 0z m55 0l0-10 29 0 0 20-29 0z m55 0l0-10 29 0 0 20-29 0z m111 100l0-21 20 0 0 42-20 0z m51 0l0-21 20 0 0 42-20 0z m51 0l0-21 20 0 0 42-20 0z m-102-68l0-22 20 0 0 43-20 0z m51 0l0-22 20 0 0 43-20 0z m51 0l0-22 20 0 0 43-20 0z m-102-68l0-22 20 0 0 43-20 0z m51 0l0-22 20 0 0 43-20 0z m51 0l0-22 20 0 0 43-20 0z m-102-70l0-22 20 0 0 43-20 0z m51 0l0-22 20 0 0 43-20 0z m51 0l0-22 20 0 0 43-20 0z"/>
<glyph glyph-name="clearical" unicode="&#34;" d="M392 486c0 0 3-2 7-3 4-1 7-2 7-2 0-1-3-13-7-28-3-14-6-26-6-26 1 0 10 5 10 5 0 1 2 12 5 26 7 29 7 27 2 27-2 0-6 0-11 1-4 1-7 1-7 0z m-15-11c1-2 2-4 3-4 2-1 1-6-3-20-2-10-4-19-4-19 4-4 11 16 15 43 0 1-3 2-6 2-6 1-6 1-5-2z m-271-8c0-7 2-12 4-12 2 0 2 1 0 4-1 2-2 5-3 8l-1 5z m248 1c0-2 1-3 2-3 4 0 4-3 2-11-3-8-3-8-7-7-10 4-10 4-9 7 0 3-1 4-6 6-5 1-6 1-5-1 0-1 0-2-1-2-1 0 0-1 2-2 3-1 5-3 5-4-1-2-3-8-3-6 0 1-2 2-3 1-2 0-5 1-7 1-3 2-3 1-3-1 1-3 11-6 14-4 4 3 4 3 5-1 1-4 13-6 16-3 2 2 7 24 7 29 0 1-2 2-4 3-4 0-5 0-5-2z m-185-13c-6-4-16-8-23-8-4 0-5-1-5-2 0-4 10-2 20 3 5 2 11 4 15 4 10 0 14 2 7 4-3 0-6 1-8 2-1 0-4-1-6-3z m77-31c-42-7-67-37-64-77 1-10 4-20 4-12 1 20 11 31 28 29 12-2 26-1 33 2 1 0 3 1 3 0 0-2-7-5-15-6l-8-2 9-4c21-8 35-6 47 7l8 7 7-2c4 0 10-2 13-2 5-2 12-14 14-25 2-17 9 3 8 24-1 19-8 31-25 39-3 2-6 4-7 5-6 11-35 20-55 17z m-110-2c0-1-3-5-7-9-8-9-8-9-5-9 6 0 18 15 14 18-1 1-2 1-2 0z m-73-147c-12-6-24-10-28-10-7-1-12-4-11-7 1-2 4-2 9-1 6 1 7 0 10-3l2-3 10 4c35 14 35 14 34 23-1 8 0 8-26-3z m376-4c-12-14-14-17-10-20 3-3 3-3 6 0 3 3 3 3 1-1-2-4 2-10 6-9 1 1 2 1 2 0-1-1 0-3 2-5l2-4 7 7c8 9 11 14 8 15-1 0-1 1-1 2 2 3-3 1-6-2-2-2-4-3-4-2 0 1 1 3 2 3 2 1 2 7-1 7 0 0-1 1 0 2 0 1 0 1-2 1-1 0-3-1-3-2-1-1-2-2-3-3-2 0-2 0-2 2 1 1 2 2 3 2 2 0 1 3-2 6-2 3-2 3-5 1z m-230-64c-2-2-9-5-15-6-7-2-13-4-14-5-1-1-9-3-16-6-42-13-52-33-58-116-3-38 3-44 49-53 57-12 188-9 229 5 25 9 28 14 27 47-6 92-15 106-83 125-7 1-16 5-22 8-11 5-10 6-10-4 0-23-17-109-20-105-1 0-2 7-3 15-2 9-5 21-7 27l-4 12 1-45c1-45 1-45-3-55l-4-9-3 6c-2 6-3 12-3 52 0 25-1 45-2 45-1 0-7-24-9-35 0-5-1-11-2-12-3-5-18 68-20 98-1 16-1 15-8 11z m35-22c-8-6-5-7 12-9 14-1 15-1 17 2 1 5-8 12-17 12-6 0-8-1-12-5z m3-24c0-5 6-7 17-5 1 0 1 2 2 4 1 4 0 4-9 4-9 0-10 0-10-3z"/>
<glyph glyph-name="customerservice" unicode="&#35;" d="M217 465c-41-11-75-49-81-88-1-7-4-14-7-17-5-3-5-8-5-26 0-25 3-30 19-30l11 0 0 31c0 25-1 30-5 30-5 0-3 15 6 34 12 26 32 44 62 54 26 8 63 7 86-4 21-10 35-21 45-37 10-16 20-45 15-47-5-1-4-60 0-61 6-2-9-24-21-32-13-7-17-7-22-2-6 6-35 6-41 0-5-6-5-16 0-22 7-7 36-6 42 1 2 3 6 6 8 6 14 0 39 22 45 39 2 6 4 10 5 10 1 0 4 2 7 5 3 3 4 10 4 26 0 19-1 22-7 26-4 4-8 11-11 23-7 30-25 52-54 69-25 16-69 20-101 12z m12-26c-21-9-40-27-52-51-19-37-16-77 7-123 6-13 15-28 20-34 6-6 10-13 10-15 0-1-4-7-9-12-10-9-28-16-103-38-56-17-88-50-95-99l-2-13 498 0-1 15c-3 21-19 51-34 65-19 17-41 26-92 42-51 14-71 23-78 34-5 6-5 7 3 15l8 8-15 0c-12 0-15 1-22 8-11 11-11 25 0 36 7 7 9 8 27 8 15 0 20-1 26-6 4-3 8-5 9-4 4 4 13 35 14 50 4 43-19 89-56 110-17 10-43 12-63 4z"/>
<glyph glyph-name="hr" unicode="&#36;" d="M62 399c-7-4-10-5-11-3 0 2-4-3-8-11-15-32-4-104 16-98 9 3 9 4 4 9-29 33-27 83 5 103 5 3 7 5 6 5-2 0-7-2-12-5z m41-4c0-7 6-21 13-32 24-40 26-66 5-82l-7-5 11 2c46 8 65 42 50 91l-5 16-2-11-1-12-19 0c-24-1-34 8-44 36-2 6-2 5-1-3z m285-10c-3-6-3-7-7-3-5 5-23 9-28 6-12-7 8-59 22-59 3 0 4-4 4-10 0-6 2-11 3-12 8-4 2 26-6 34-12 12-6 31 6 23 7-4 8-2 10 16 1 15 0 16-4 5z m-121-10c-35-8-58-47-61-103l-1-30 10-10c9-8 12-10 22-10l12 0-7 9c-14 19-23 43-15 43 18 0 58 33 71 58 3 5 6 8 6 6 0-6 14-23 23-28 18-9 10-65-12-85-6-4-6-4-4 6 1 11 1 11-5 7-12-9-31-16-42-17-16-1-15-3 3-12 13-7 39-30 36-33-1-1-6-2-11-3-9-3-9-3-2-3 20-1 34 10 27 21-6 9-2 10 10 3 29-14 8-35-37-38-64-4-94 23-48 42 8 4 3 3-17 0-2-1-4 4-6 11l-3 11-38 0-2 11-1 10-1-12c0-16-2-17-14-10-5 3-16 7-24 8l-14 3-8-16c-13-28-42-69-44-64-3 5-9 51-9 70l0 13-13 0c-7 0-13-1-13-3 0-2 4-2 11-1 9 1 12 1 12-2 0-3-6-4-24-5-28 0-27 2-27-31l0-28 13-7c35-17 85-30 122-30l26 0 0-10c0-31 65-51 141-42 60 6 81 20 78 49l-1 17 23 2c62 6 96 27 93 60-3 57-32 98-60 86-10-4-17-4-29 2-8 4-9 4-3 0 8-6 25-11 28-7 10 9 17-5 17-33 0-38-4-46-13-28-4 8-4 14 2 29 3 7-10 12-24 8-14-3-13-2-4-21 7-15 7-15 3-26l-5-12-8 18c-5 10-15 28-22 40-12 22-13 24-10 36 3 15 2 16-6 12-8-4-8-4-16 16-18 43-49 63-85 53z m-50-196c0-16 29-28 66-28 26 0 27 0 27-7 0-6-22-20-26-16 0 0-3 0-6-2-3-1-10-4-16-5-19-3-20-3-27-5-3-1-6-3-6-5 0-15-37-23-52-10-13 12-4 54 14 70 15 14 26 17 26 8z"/>
<glyph glyph-name="houses" unicode="&#37;" d="M80 336c-40-29-72-53-72-54 0-1 5-8 10-15l10-13 9 5 9 6 1-58 1-58 46-1 45-1 0 17-76 0 0 58 0 58 42 30c23 16 44 30 45 31 2 0 9-3 17-9 7-5 14-10 15-10 2 0 9 5 17 11l14 10-18 13c-10 8-24 18-31 23l-13 9z m245 29c-15-12-28-22-28-23 0-2 6-8 13-13l13-10 16 11c9 6 17 11 18 11 2 0 22-14 45-31l42-30 1-58 1-58-80 0 1-8 1-7 44-1c38-1 45 0 49 3 3 4 4 13 4 59l0 55 8-5 8-6 10 14c6 8 9 15 8 16-7 6-139 101-142 101-1 0-16-9-32-20z m-139-53c-37-26-69-50-72-53-5-5-5-5 5-19l10-14 8 6c4 3 8 5 9 5 1 0 2-25 2-57 0-57 0-57 6-59 3-1 50-1 104-1l99 1 1 58c2 58 2 59 7 55 3-3 8-5 10-5 4 0 22 25 20 28-1 1-32 24-69 50-37 27-69 50-71 51-1 1-29-16-69-46z m126-38l30-22 0-113-58 0 0 40c0 28-1 42-3 44-3 4-48 5-53 1-3-1-4-14-4-44l-1-42-29-1-30-1 0 116 44 32 45 32 15-11c8-6 28-20 44-31z m-44-100l0-35-27 0 0 71 27 0z"/>
<glyph glyph-name="peoples" unicode="&#38;" d="M233 379c-26-12-39-39-35-70 4-32 18-57 38-67 7-4 11-5 20-5 20 0 35 11 46 33 19 37 17 75-5 97-17 17-43 22-64 12z m-1-36c13-5 37-5 48 0 4 2 8 3 9 3 2 0 9-15 12-24 1-7 2-8 4-5 4 5 5 1 2-14-3-25-18-48-35-56-9-4-23-4-32 0-15 7-31 31-34 49-1 4-2 9-2 11-1 3-1 4 3 3 4-1 4-1 4 12 0 16 3 24 8 24 2 0 8-1 13-3z m175-10c-9-3-20-14-25-24-3-7-4-14-5-31-2-31-5-42-12-51l-4-3 4 0c5 0 4-2-2-6l-5-3-8 7c-10 10-17 14-30 19-12 4-16 4-16 1 0-4-13-24-27-44l-13-18-2 9c-2 17-1 24 3 29 6 6 6 9 0 7-5-2-16-2-22 0-5 2-5 0 1-7 4-5 4-6 4-20-1-8-1-15-2-16-2-2-23 30-32 48-4 7-7 14-7 14 0 0-5-1-11-2-13-4-24-10-32-18l-6-6-12 6c-15 8-19 8-22 1-3-7-23-36-25-36-1 0-2 5-2 10-1 8 0 11 2 14 2 2 3 3 3 4 0 0-4 1-10 1l-10 0 4-4c3-3 3-5 2-15l-2-12-9 14c-5 7-11 17-13 21-5 10-8 10-20 5-18-8-30-28-30-48 0-13 4-20 14-25 6-3 13-3 59-4l53-1 5-7c6-9 17-14 35-16 18-2 132-2 151 0 19 2 30 7 36 17l6 7 54 0c49 0 56 1 61 3 8 4 10 9 10 22 0 18-12 37-28 46-7 3-7 5 0 4l5-1-4 4c-6 10-9 20-10 44-2 35-8 49-24 58-8 4-22 5-30 3z m37-39c1-2 1-6 0-8-1-4 0-4 5-4 2 0 5-1 6-2 1-2-3-23-6-29-5-10-12-17-18-20-8-3-19-3-25 0-7 4-16 16-20 27-5 16-5 16 8 19 13 4 25 9 37 16 5 3 9 6 10 6 1 0 2-2 3-5z m-40-66c8-6 19-6 29 0 9 5 10 5 7 1-1-3-1-3 4-3 12 2 8-7-5-14-6-2-10-6-14-12-3-5-6-9-7-9 0 0-3 4-7 10-4 6-7 9-11 11-5 1-13 7-13 10 0 0 3 1 6 0 6 0 6 0 5 4-3 8-3 8 6 2z m-320 98c-14-3-26-16-29-33-2-8-2-11 0-24 4-19 13-33 26-40 6-3 19-3 26 1 19 9 32 48 24 70-8 19-28 31-47 26z m-8-26c9-4 28-4 34 0 5 2 5 2 8-2 2-2 4-7 5-11 2-6 3-7 5-5 2 2 2 1 1-7-3-27-21-47-39-44-15 2-29 20-31 39-1 6-1 8 0 8 1-1 2 2 3 9 0 9 3 15 6 15 1 0 4-1 8-2z"/>
<glyph glyph-name="pg" unicode="&#39;" d="M136 387c-137-120-127-108-112-125l12-14 18 16 19 15 0-243 353 0-1 126c-1 70-1 127 0 127 1 0 11-10 24-21l22-20 13 14 14 14-8 8c-13 13-234 205-236 205 0 0-54-46-118-102z m190-11c39-34 75-66 81-71 15-12 15-15-1-14l-12 2 0-229-21 0 2 173-11 0c-6 0-12-2-13-3-1-2-6-2-13 0-6 2-13 4-15 5-4 1-3 3 1 7 4 4 8 6 10 4 1-2 4-3 6-3 4 0 3 13-1 16-7 4-3 8 8 8 8 0 10-1 7-4-5-5-6-19-1-22 3-2 14 14 14 22 0 11-4 18-10 18-8 0-15 7-15 15 0 6-8 8-12 2-1-2-2-10-2-18 0-8-3-21-6-29-5-11-6-18-4-29 2-9 3-48 3-89l1-73-57 0c-66 0-60-5-58 46 1 22 2 31 6 32 8 3 8 1 11-29 1-15 3-28 5-29 2-1 1-4-2-6-8-7-7-11 5-11 10 0 14 8 7 12-3 2-3 5 0 9 4 7 4 56 0 61-4 5-40 3-44-2-3-4-5-22-5-45l-1-38-16 0c-15 0-17 1-18 7-2 14-22 16-35 3-18-17-18-18-17 104 1 92 0 116-3 118-6 3-13-4 75 73 39 34 71 63 72 65 5 7 9 3 79-58z m28-237c0-3 1-20 2-40l1-35-17 0c-9 0-13 1-9 2 7 1 8 4 9 26 1 48 1 51 7 51 3 0 6-2 7-4z m-209-72c8-2 7-3-6-3-9 0-14 1-13 3 3 4 7 4 19 0z m71 236c-1-2-1-8 1-13 1-6 0-8-4-8-7 0-13-12-10-23 2-9 8-12 8-5 0 3 3 2 6-1 4-4 9-5 13-4 3 1 5 0 5-2 0-2 1-3 3-3 3 0 1 15-6 48-2 12-11 18-16 11z m55-16c-14-10-12-34 4-47 10-8 27 15 23 33-1 8-12 19-18 19-1 0-5-2-9-5z m-146-13c-5-5-5-19 0-22 1-1 3 1 3 5 0 8 16 12 19 5 2-7 9-6 9 2 0 13-21 20-31 10z m38 1c-8-5-1-15 10-12 12 2 13-1 5-16-4-8-8-10-16-10-12 0-12 0-4-43 4-26 7-33 11-33 13 0 14 4 10 33-3 15-4 29-3 31 2 9 7 5 7-6 0-6 2-11 6-12 3-2 7-6 8-10l3-7 0 8c1 13 20 8 20-6 0-6-2-11-3-10-2 0-5-2-6-4-1-2-5-5-8-5-6-1-23-12-23-15 0-1 17-3 37-3l37 0 0-88 10 0c8 0 9 1 8 11-1 34 1 65 6 65 8 0 9-3 9-41l1-35 18 0 0 74c0 40 1 78 3 84 3 16-20 18-24 3-3-11-7-11-10 0-2 8-4 9-13 8-6 0-13 0-15 1-7 5-23-1-26-10-4-10-6-10-10 1-2 6-6 9-12 9-8 0-9 1-7 6 11 26-7 46-29 32z m95-72l4-23 6 38 4-11c3-8 4-9 5-3 0 5 0 6 3 1 3-4 4-4 7 0 4 7 6 2 8-25l2-19-13-1c-7 0-17 0-22-1-11-1-12 2-13 31-2 43 4 51 9 13z m-138 24c-8-13-10-81-2-86 7-4 9 9 4 35-2 15-3 28-2 31 4 5 11-19 11-37 0-15 1-16 9-16 11 0 13 3 8 18-1 8-4 23-5 35-3 21-16 32-23 20z m40-92c-12-14-13-53-1-46 3 3 14 36 14 45 0 7-8 7-13 1z m-31-3c-8-4-13-19-9-29 3-8 8-5 6 4-2 6 0 10 9 19 12 10 9 13-6 6z m-43 335c0 0 0-21-1-45 0-24 0-44 0-44 0 0 7 6 14 13 8 8 21 20 30 28 15 14 16 16 16 32l0 17-29 0c-16 0-30 0-30-1z"/>
<glyph glyph-name="finance-service" unicode="&#42;" d="M362 476c0-9 1-8-17-11-19-3-30-8-41-18-12-11-18-23-20-38-3-22 2-40 16-55 9-9 17-13 41-21l20-6 0-27c1-16 0-28 0-28-1 0-4 2-7 3-7 5-12 12-15 23-2 9-2 9-8 7-3 0-17-2-31-3-14-2-26-3-26-3-2-2 5-22 9-29 6-11 22-26 33-31 10-5 24-9 38-10l8-2 0-28 22 0 0 28 10 2c24 2 40 10 54 23 28 28 29 71 4 97-9 9-29 19-51 26l-17 5 0 22c0 17 1 22 2 22 4 0 15-13 16-18 1-5 2-5 29-1 31 5 32 5 32 9 0 6-11 24-21 32-11 11-23 16-42 19-17 3-16 2-16 11l0 8-22 0z m0-70c0-13-1-20-2-20-4 0-12 6-14 11-5 9-3 19 7 25 8 6 9 6 9-16z m32-90c10-5 16-12 16-21 0-9-5-17-14-21-12-6-12-7-12 21 0 16 1 25 2 25 1 0 4-2 8-4z m-231-88c-21-2-69-13-69-16 0 0-3-24-5-52-3-28-5-51-5-52 0-1 4-2 10-2 15-2 23-5 82-33 92-44 93-44 117-43 9 1 29 3 44 6 15 2 40 6 55 8 21 3 30 5 37 9 11 6 51 33 66 44 15 12 19 23 9 28-2 1-2 2 3 7 7 6 6 11-2 15-12 6-32-1-52-18-20-16-37-22-77-26-36-3-55-1-83 10-9 4-25 9-34 12-33 8-31 7-28 12l3 5 24 1c39 3 54 2 94-4 46-7 51-7 57-2 10 10 12 26 5 33-9 9-39 17-76 20-48 5-47 4-73 17-39 19-67 24-102 21z m-155-3c-1-2-2-12-4-23-2-15-3-31-3-75l0-55 20-1 20-1-1 20c-1 24 5 115 9 134 0 4 0 4-20 4-18 0-20-1-21-3z m48-19c-3-5-6-37-6-73l0-41 14-1 2 24c0 14 2 40 4 59l4 33-9 0c-4 0-9 0-9-1z"/>
<glyph glyph-name="it-job" unicode="&#43;" d="M238 489c-24-6-43-18-56-39-5-8-13-27-13-32 0-2-4-3-12-4-25-4-44-18-55-40-5-10-6-12-6-29 0-17 1-19 6-30 11-23 31-38 55-42 6-1 50-1 99-1 96 1 96 1 116 11 32 18 52 57 46 93-6 40-35 68-76 75-11 2-12 3-22 13-13 12-26 20-43 24-15 4-24 4-39 1z m-79-254c-17-13-33-24-33-25-1-1 2-2 9-2l11 0 32 24c18 13 33 24 33 25 1 2-2 2-9 2l-10 0z m101-17l0-41 8-1 8 0 0 83-16 0z m66 40c0-1 13-14 30-30l29-28 9 0c5 0 9 0 9 1 0 1-14 14-30 30l-29 28-9 0c-5 0-9 0-9-1z m-309-67l-5-5 0-125 4-4 4-4 176 0 3 4c4 4 4 4 4 67 0 60 0 64-3 67l-3 4-88 1-87 0z m173-9c3-3 3-9 3-49 0-29-1-47-2-50-2-3-4-3-82-3-61 0-82 1-83 2-3 3-3 97 0 100 1 2 22 2 82 2 70 0 80 0 82-2z m145 4c-7-3-7-6-7-51l0-43-13 0 1-12c1-11 1-13 5-16l5-4 164 0 4 4c5 3 5 5 6 16l0 12-12 0 0 87-4 4-4 5-71 0c-38 0-72-1-74-2z m140-13c1-1 1-20 1-42l0-39-24 0c-23 0-23 0-24-4 0-3-1-4-22-4-21 0-21 1-22 4 0 4-1 4-22 4l-22 0 0 40c0 29 0 40 2 42 1 1 18 2 67 2 58 0 65-1 66-3z m-232-10c-3-2-3-78 0-81 2-2 47-3 50 0 2 1 2 10 2 41l-1 40-24 0c-14 0-26 0-27 0z m45-37l0-26-20 0-20 0-1 52 42 0z m-17-35c0-1 0-3-2-3-2-2-5 2-4 4 2 3 6 2 6-1z m-193-50c-4-4-6-10-6-14 0-3 0-3 40-3 39 0 40 0 40 3 0 5-3 11-8 14-3 3-7 3-33 3-27 0-31 0-33-3z"/>
<glyph glyph-name="salehome" unicode="&#45;" d="M82 328l-63-56 0-157 100 0 0 82 26 0 25-1 0-40 1-41 50 1 50 0 0 78 0 78-56 50c-31 28-60 53-63 56l-7 5z m116-18l52-46 1-13c0-8 0-36 0-64l0-51-62 0 0 80-90 0 0-80-60 0 0 127 53 47c29 25 53 46 53 46 1 0 25-21 53-46z m-7 58c0-10 0-10 8-17l8-7 1 17 24 0 0-39 8-7c5-4 9-7 10-7 0 0 1 16 1 35l0 35-60 0z m91-96l0-64 100 0 1-46 0-46 10 0 10-1 0 93 100 0 0 129-221 0z m123 45l78 0 0-91-181 0 0 45c0 25 0 46 1 46 0 0 6 0 12 0 7 0 47 0 90 0z m-72-15c-4-3-6-12-5-19 1-2 5-8 10-13 8-8 9-11 9-18-1-7-11-3-11 4 0 2-1 3-4 3-4 0-4-1-4-5 0-8 6-14 15-14 10 0 14 4 14 15 0 8-1 10-10 19-8 9-9 12-9 16 1 7 8 9 9 2 1-3 3-4 6-4 3 0 4 1 4 5 0 10-15 15-24 9z m38 1c-1-4-9-56-9-60 0-2 1-3 4-3 2 1 4 2 4 6 1 4 2 5 7 6 6 0 9-2 9-8 0-3 1-4 5-4 5 0 5 0 4 6 0 2-2 15-4 26-2 12-4 24-4 27-1 5-2 6-8 6-4 0-7-1-8-2z m10-32l1-11-4 0c-5 0-5 1-4 9 1 5 2 12 3 15 1 6 1 6 2 2 1-2 2-9 2-15z m20 1l0-32 26 0 0 5c0 5-1 5-7 5l-8-1 0 28-1 28-10 0z m32 32c-1-1-1-16-1-33l0-31 13 0c14 0 14 0 14 4 0 4-1 4-8 5l-8 0 0 19 6 1c6 0 7 1 7 4 0 4-1 5-7 5l-7 0 0 17 9 0c8 0 8 0 8 5l0 5-12 0c-7 0-14-1-14-1z"/>
<glyph glyph-name="guittar" unicode="&#60;" d="M429 485c-2-3-3-4-6-1-3 2-6 3-7 2-1-1 1-4 3-6 5-3 5-4 2-9-4-7-7-8-9-2-1 2-3 3-5 2-2-1-2-3 2-5 5-4 5-4 0-10-5-5-6-5-8-1-1 2-3 4-5 4-4 0-3-8 1-9 2-1 1-2-3-5-4-2-6-5-6-11 0-7-9-18-59-71-33-35-64-68-69-74l-10-11-22 12c-19 9-24 11-33 9-21-3-29-9-44-32-15-24-21-28-59-44-44-19-55-27-64-45-7-13-8-18-7-33 1-22 8-37 27-60 16-20 48-46 67-56 22-11 39-13 57-8 29 8 40 24 57 75 13 40 17 46 38 62 22 18 27 25 29 43 1 16-5 30-19 49l-7 9 68 75c58 65 68 75 75 75 6 0 9 2 12 8 2 4 4 6 5 4 0-4 8-5 8-1 0 2-2 4-4 5-4 2-4 3 1 8 5 4 7 4 8 2 1-2 3-4 6-4 3 1 3 1-2 6l-6 5 6 4c6 4 7 4 9 1 1-3 3-5 4-5 4 0 4 9 0 9-3 0-2 1 1 4 3 2 5 7 5 13 0 7-2 11-9 16-9 7-26 8-28 1z m-205-257c15-15 6-39-15-39-25 0-32 33-10 44 10 5 16 4 25-5z m-89-65c6-3 18-13 26-22 11-13 13-17 11-21-2-2-4-5-6-5-1 0-13 10-27 23-22 20-24 23-21 27 4 6 2 6 17-2z"/>
<glyph glyph-name="manufacture" unicode="&#61;" d="M202 470l-3-12-19-1c-10-1-22-2-25-3-5-1-6 0-11 10-3 6-7 11-7 11-4 0-33-16-39-20l-6-5 7-11 7-10-12-13c-7-7-14-16-16-19-2-5-5-7-6-7-12 5-22 7-23 5-3-3-11-28-13-39l-1-8 12-3 12-4 0-13c0-8 2-19 3-25l3-11-8-4c-17-8-16-7-6-27 4-9 10-19 12-21l4-5 11 6 10 7 13-12c7-7 16-13 19-15 8-3 8-4 4-17-2-5-3-10-3-11 0-3 47-17 48-15 1 1 2 6 4 13 3 12 3 12 11 11 8 0 31 3 38 6 2 0 5-3 9-10 3-6 6-11 7-11 5 0 36 16 44 22 0 1-3 6-6 12l-7 11 11 11c6 6 13 15 15 20l5 9 12-5c7-2 13-4 13-3 1 1 12 33 13 41l1 7-12 4-13 4 1 8c0 8-3 28-5 36-2 3 1 5 10 10l13 6-9 17c-5 10-11 20-13 23l-4 5-11-6-11-7-9 9c-4 4-13 11-18 15-12 8-12 6-7 20 4 13 4 12-20 20-25 8-26 8-29-6z m26-21c0-5 1-9 2-10 8-2-1-3-9-1-11 4-13 9-6 13 3 1 6 3 5 4 0 1 1 2 3 2 4 0 5-1 5-8z m-91-6c3-2 6-4 6-4 1 1 2 0 3-1 0-1-1-2-2-2-2 0-4-1-4-2 0-2-12-7-17-7-2 0-3 2-2 8 1 7 0 9-3 8-1-1-1 0 1 2 7 5 11 5 18-2z m71-22c71-16 96-105 45-157-46-46-123-32-151 26-33 70 30 149 106 131z m95-36c-1-1-2-4-2-4 1-1-2-2-6-4-5-2-6-2-6 1 0 2-1 3-2 3-2 0-3 2-3 4 0 3-1 5-2 5-1 0-2 1-2 2 0 1 2 2 4 1 3 0 6 1 7 3 1 2 2 2 2 1 0-2 2-3 3-3 2 0 4 1 3 2 0 5 1 5 3-1 1-3 1-8 1-10z m-227-14c3-3 6-10 3-9-1 1-2 0-2-3 0-6-6-8-11-3-6 5-6 13 1 15 2 0 5 1 6 1 0 0 2-1 3-1z m237-74c2-6-2-8-13-8-5 0-6 6-2 17l2 5 6-4c3-3 6-7 7-10z m-228-17c2 0 8-13 7-14-1-1-5-1-9-1-5 0-8-1-7-2 1-1 0-2-2-2-6 0-5 13 2 20 5 5 6 6 7 3 0-2 1-4 2-4z m164-46c-3-1-1-3 4-2 1 1 1 0 0-1 0-1 0-3 1-5 3-7-3-12-10-10-9 3-10 10-1 17 4 3 8 5 8 5 1-1 0-2-2-4z m-99-13c-1-1 0-2 2-2 5 0 7-1 9-2 2-1 3-1 4 1 1 1 1 2 1 0 1-5-7-11-14-13-7-1-7-1-6 5 1 3 0 5-1 5-5-1-5 0 0 4 6 5 7 6 5 2z m199 55c-13-6-14-7-9-16 4-8-16-30-24-26-9 4-11 3-17-11l-5-15 17-5 0-31-8-3c-4-2-8-4-8-5 0-1 11-26 12-27 1-1 4 1 8 3l8 3 11-11 12-11-4-7c-2-3-3-7-3-7 1-1 29-12 30-12 0 0 2 4 3 8l2 8 16 0c15 0 15 0 18-7 4-8 3-8 20-1l13 5-4 8-4 8 11 12c11 11 11 11 17 8 10-5 10-5 15 10 7 16 7 16-2 19-7 2-7 2-8 18l-1 15 7 3c10 3 10 4 3 18-7 16-6 16-15 11l-7-3-11 11-11 10 3 7c4 8 4 9-12 15-15 6-15 6-17-3-3-7-3-8-15-8-6 0-13 0-15-1-2-1-4 1-7 8-4 10-3 10-19 2z m62-43c9-5 14-9 19-18 31-52-38-104-79-59-37 42 11 103 60 77z m-191-86c-5-2-10-4-11-5-1 0-1-3 1-6 4-7-9-24-15-22-10 3-10 3-14-7-4-11-3-14 4-14 7 0 5-24-2-27-3-1-6-3-6-3 0-1 9-19 10-20 1-1 3 0 6 2 8 3 23-11 20-19-2-3-3-6-3-6 0-1 20-8 22-8 1 0 2 2 3 5 1 5 3 6 10 6 5 0 10 0 12 1 2 1 4-1 5-6l3-6 8 3c4 2 9 4 11 5 2 1 2 2-1 7-4 9 10 23 20 20 5-2 6-2 8 5 7 15 7 16 0 17-11 2-11 24 0 28l6 2-5 10c-2 6-5 11-5 12 0 0-3-1-6-3-9-4-24 10-19 19 2 5 2 6-1 7-2 1-8 3-12 5-4 1-7 3-8 3 0 0-1-3-2-7-2-10-22-10-27 0l-3 6z m43-33c23-12 28-41 9-59-13-13-33-15-46-4-37 27-4 83 37 63z"/>
<glyph glyph-name="sale-service-1" unicode="&#62;" d="M81 494l-10-11-1-34-1-33-22 0-21-1 0-44 22 0 21-1 1-178 0-179 46 0 0 358 39 0 39-1 1-21 1-22-38 0 0-191 286 0 0 191-36 0 1 22 1 21 27 1 28 0 11 11 10 11-21 22-349 0 0 68-12 11c-6 6-12 11-12 11-1 0-6-5-11-11z m301-145l0-22-160 0 0 21c0 11 0 21 1 22 1 1 37 1 80 1l78-1z m-123-57c0-7 0-7-13-7-13 0-13 0-13-6 0-7 0-7 11-7 10 0 11 0 11-6 0-7-1-7-11-7l-11 0 0-22-18 0 0 62 44 0z m53 3c17-9 17-46 0-54-3-2-12-4-18-4-10 0-12 1-18 7-13 13-13 38 1 49 8 7 24 8 35 2z m68-2c9-8 9-19 1-29-4-6-5-7-2-11 1-2 4-6 7-10l3-6-9 0c-9 0-10 1-15 10-3 5-7 10-8 10-2 0-3-3-3-10l0-10-18 0 0 62 19 0c16 0 19-1 25-6z m-154-71c3-2 4-5 4-9 0-8 1-8-7-4-7 2-17 1-17-3 0-1 2-3 4-3 2-1 8-3 12-5 22-9 14-36-10-36-16 0-21 3-21 12l0 8 8-3c9-4 18-3 18 2 0 2-4 4-9 5-12 3-18 10-18 20 0 11 9 18 22 18 6 0 12-1 14-2z m68-29c6-16 11-30 11-30 0 0-4-1-9-1-8 0-9 1-11 7-2 6-3 7-12 7-8 0-9-1-12-7-2-6-4-7-11-7-5 0-9 1-9 1 0 2 22 57 24 59 1 1 5 2 9 1l8 0z m35 7l0-24 29 0 0-14-46 0 0 62 17 0z m82 17c0-6 0-6-13-6-13 0-14-1-14-6 0-5 1-5 13-5 11 0 12 0 12-7 0-7-1-7-12-7-12 0-13 0-13-5 0-5 1-5 14-5 13 0 13 0 13-7l0-7-44 0 0 62 44 0z m-123 64c-10-9-4-31 8-31 7 0 11 8 11 18 0 16-10 23-19 13z m66-3c0-6 1-8 4-8 7 0 11 3 11 8 0 5-4 7-11 7-3 0-4-1-4-7z m-84-81c-3-9-3-8 3-8 5 0 5 0 4 7-3 9-4 9-7 1z"/>
<glyph glyph-name="sofa" unicode="&#63;" d="M76 352c-10-3-11-6-11-42l0-33 14-1c27-1 32-7 32-38l0-21 142 0 0 125-5 5-5 6-81 0c-45 0-83 0-86-1z m199 0c-2 0-5-2-7-5l-4-4-1-63 0-63 141 0 0 21c0 31 6 37 32 38l15 1 0 33c0 37-1 39-12 42-6 2-155 2-164 0z m-254-87c-11-4-11-2-10-68l0-61 5-3c4-3 8-4 24-4l19-1-1 7c-2 10-2 57 0 66 3 12 9 16 27 16l16 0 0 19c0 22-2 26-12 29-8 2-60 2-68 0z m405 0c-10-3-11-7-11-29l1-18 10-1c22-2 23-5 23-53l-1-36 23 1c21 0 24 1 29 4l4 3 0 123-4 3c-6 4-61 6-74 3z m-355-61c-4-5-4-69 0-73 5-4 358-4 363 0 6 4 6 67 0 73-4 5-359 4-363 0z"/>
<glyph glyph-name="marketig" unicode="&#93;" d="M34 471c-12-3-20-10-25-21-4-10-3-260 1-270 9-20 13-21 115-21l85 0 0-61-87 0-4-5c-4-4-5-5-5-24 0-18 1-20 5-24l4-4 265 0 4 4c6 7 6 42 0 48l-4 5-88 0 0 61 85 0c59 0 87 1 92 2 10 3 22 14 25 23 2 9 2 255 0 264-3 9-15 21-25 23-9 2-435 3-443 0z m441-26c4-5 5-252 0-257-4-5-434-5-439-1-5 5-5 252-1 257 4 5 435 5 440 1z m-68-37c-12-6-19-20-14-32l2-7-38-48-39-48-8 0c-5 0-10 0-14-3l-7-3-33 23c-32 23-32 23-32 29 0 19-23 31-38 21-9-7-13-13-13-21l0-8-31-22-31-21-6 3c-23 10-46-13-34-35 11-23 47-14 47 11l0 7 31 22 32 21 8-2c9-4 12-4 20 1l8 3 32-22 32-23 2-9c6-32 52-28 49 4 0 4-1 9-1 11-1 2 11 17 37 51l39 49 9-1c27-2 36 35 12 47-8 4-14 5-21 2z m19-14c5-5 6-9 4-15-5-14-27-10-27 6 0 11 16 18 23 9z m-218-65c7-5 6-17-1-23-11-8-28 6-21 18 5 9 13 10 22 5z m-104-72c8-9 1-23-11-23-10 0-17 12-13 20 6 10 17 11 24 3z m210 4c13-7 8-27-6-27-16 0-20 22-5 27 5 3 5 3 11 0z"/>
<glyph glyph-name="gym" unicode="&#94;" d="M108 351c-9-5-15-13-17-23-2-7-3-7-12-7-7 0-12-2-16-7-6-5-7-8-7-24l0-18-23 0c-19 0-24-1-28-5-3-3-5-8-5-10 0-3 2-8 5-11 4-4 9-5 28-5l23 0 0-18c0-16 1-19 7-24 4-5 9-6 16-6 9 0 10-1 13-10 9-32 53-35 68-5 3 4 4 16 4 35l0 28 189 0 1-29c1-32 4-42 18-50 11-7 29-7 39 0 9 6 17 17 17 25 0 5 1 6 11 6 9 0 12 1 18 7 5 7 6 11 6 25l0 16 20 0c20 0 29 5 29 16 0 10-9 15-29 15l-20 0 0 16c0 14-1 18-6 25-6 6-9 8-18 8-10 0-11 0-11 5 0 8-8 19-17 25-10 7-28 7-39 0-14-8-17-18-18-50l-1-29-189 0 0 28c0 30-2 37-14 48-9 9-30 11-42 3z"/>
<glyph glyph-name="gym1" unicode="&#95;" d="M65 337c0-19 1-36 2-37 4-4 12 10 15 27 1 6 3 12 4 14 2 3 2 4 1 8-2 4 2 10 6 8 2-2 1-121-1-120-3 1-8 11-12 22-2 7-4 10-8 12-5 2-7 7-7 19 0 4-1 6-4 8-5 2-5 1-5-5l0-7-49 0 0-10 16 1c21 1 27 1 30 3 3 1 3 0 3-9l0-9 5 4 4 4 0-11c0-5 0-12 1-15 0-3 0-10-1-17l-1-11-4 5-4 4 0-6c0-6 1-6 5-6l5 0-1-37 0-37 87 0 0 74 5 0c4 0 5 0 5 4 0 5-3 7-5 3-4-7-5-4-5 22 0 25 1 29 5 24 3-3 5 0 5 8 0 7 0 7 5 5 3-1 38-1 93-1 96 0 90 1 90-9 0-5 0-5 4-3l4 3 0-54-4 4-4 4-1-4c-1-6-1-6 4-6l5 0 0-74 87 0 0 74 5 0c3 0 4 0 4 6l0 6-4-5-4-5 0 27c-1 27 0 27 3 25 4-5 5-4 5 5 1 6 1 8 3 7 2 0 12-1 23-1 10-1 20-2 21-3 2-1 2 0 2 1 0 1 1 4 2 6l1 4-52 0 0 7c0 6 0 6-4 4-4-1-5-3-5-9 0-12-1-15-7-17-2-2-5-3-5-5 0-4 0-5-2-8-2-2-3-5-3-6 0-5-5-14-7-13-2 1-4 116-1 118 3 2 7-4 5-8-1-4-1-7 2-13 1-4 4-13 5-18 2-10 8-20 11-18 2 1 2 12 2 37l0 36-87 0 0-37c0-34 1-36 3-36 5 1 11 11 12 21 1 5 3 13 5 17 4 6 4 7 1 11-3 4 0 9 5 9 1 0 2-28 2-61 0-53-1-60-3-59-1 0-2 2-2 4 0 2-1 3-2 3-1 0-2 2-3 4-2 9-8 22-9 21-1-1-2 0-2 2-1 1-3 2-4 1-2-1-3 1-3 11 0 7 0 12-1 12-1 0-3 1-4 1-3 1-3 0-3-5l0-6-189 0 1 5c1 6-2 8-7 5-3-1-3-3-3-13 0-9-1-11-3-11-4 0-8-4-11-12-4-13-9-23-10-23-3 2-2 121 1 120 1-1 3-1 3-1 2 0 1-7-1-7-2-1-1-2 1-7 1-3 4-10 5-16 1-7 2-13 3-13 1-1 2-3 2-5 0-3 5-8 8-8 1 0 2 10 2 36l0 37-87 0z m48 20l8 1 0-121-6 2c-4 1-8 1-12 0l-6-2 0 123 4-2c2-2 7-2 12-1z m302-62c0-34-1-60-2-59-1 1-2 2-2 2-1 0-3 1-6 1-2 1-6 1-9 0l-5-2 0 120 24 0z m-322-106c0-40 0-42-9-35-3 3-4 5-5 17 0 7 0 14-1 15 0 1 1 5 2 8 1 3 1 10 1 15 0 9 4 17 10 17 3 0 3-4 2-37z m28 0l0-37-24 0 0 74 24 0z m12 34c2-2 4-4 4-6 0-1 0-7 0-13 3-28 1-47-3-50-8-6-8-5-8 35 0 39 1 40 7 34z m253-34c0-23-1-38-2-38-4 0-10 4-11 8-1 5-1 28 0 35 0 3 1 11 1 17 1 8 2 11 4 13 7 5 8 4 8-35z m29 0l0-37-24 0-1 35c0 43-1 40 13 39l12 0z m11 35c2-2 3-5 3-13 1-6 2-14 2-17 1-3 1-7 1-8 0-1 0-6 0-13 0-14-1-18-6-20-8-3-8-1-8 37 0 38 0 39 8 34z m-322 122c-2-1 2-5 5-5 3 0 7 3 7 5 0 2-11 2-12 0z m291 0c-1-1 4-5 7-5 3 0 8 4 6 5-1 2-11 2-13 0z m-388-98l0-20 49 0 0 32-8 1c-4 1-13 1-19 1-6 0-13 1-15 3-7 4-7 3-7-17z m39-5c3-5-1-7-13-7-14 0-15 1-13 5 1 5 22 6 26 2z m451 22c-3-2-10-3-17-3-6 0-15-1-18-1l-7-2 0-31 25 0c23 0 25 0 24 3 0 1-1 10-1 19 0 18 0 19-6 15z m-7-21c6-4 0-7-13-7-13 0-16 1-13 6 3 2 22 3 26 1z m-321 17l-7-1 0-32 187 0 0 16-1 16-7 1c-9 1-163 1-172 0z m170-19c6-6-1-6-80-6-86 0-94 0-88 7 3 4 164 3 168-1z"/>
<glyph glyph-name="homedecor" unicode="&#123;" d="M275 495c-2-1-4-1-6-1-4 1-6-2-6-8 0-4-1-4-6-3-9 3-10 2-5-4 3-4 7-9 8-12 2-3 6-8 9-11l7-5-7 0c-4 0-6-1-5-2 0-1 3-2 5-2 3 0 4-1 4-3 0-3 1-4 2-2 4 2 7-1 7-7l0-5-4 4c-2 3-5 5-7 5-6 0-19-6-22-10-2-2-2-2 2-2 2 0 6-1 9-3 3-1 7-3 9-3 3-2 3-2 0-3-2-1-5-3-7-5-2-2-5-3-8-3-5 0-5-1-4-6 0-4 0-5-3-5-5 0-3-3 3-7 7-4 8-6 3-6-7 0-5-7 2-9 3-1 8-4 10-7 2-3 5-5 7-5 5 0 5-1 4-13 0-10-1-12-4-9-4 7-18 9-24 4-2-1-4-2-5-1-1 0-4-1-7-4-3-2-5-3-6-3-2 3 1 9 6 11 4 2 4 8 0 8-2 0-2 1 1 4 4 3 4 4 1 7-2 2-2 4-1 6 2 4-1 8-9 12-3 1-6 3-7 4-2 3-4 2-4-2 0-4 0-4-8 0-3 2-7 4-9 3-3-1-4 1-6 8-3 8-2 11 3 11 1 0 1 1 0 2 0 1 0 2 1 2 2 0 2 0 0 1-1 1-1 3 3 6 7 7 10 14 11 24l1 11-5-2c-3-1-5-2-6-3-1-2-6 2-6 6 0 1 0 3-1 3-1 0-8-4-9-6-1-1-3 0-5 1-3 2-4 2-7 0-2-1-6-2-10-2-7 0-15-5-12-7 3-3 2-5-2-5-2-1-5-2-6-4-1-2-1-4 3-7 3-3 5-5 5-5-1 0-4-1-6-3-7-2-6-5 0-5 2 0 7-1 11-3 3-1 9-3 13-4l7-1-9-8 6 1c3 1 5 1 5-1 0-1 1-1 2 1 4 4 8 2 10-6 3-8 0-12-9-12-6 1-10-2-10-6 0-2-1-4-3-5-5-3-10-8-10-11 0-1 1-3 2-5 2-2 3-7 4-11 1-5 2-8 4-9 1 0 4-1 6-2 2-1 8-2 13-3 9 0 10 0 10 3 0 4 2 5 5 1 1-1 4-2 6-2 2 0 4-2 8-15 3-8 5-17 6-19 0-2 2-10 5-19 3-8 5-15 4-15-1-1-2-4-2-8 1-7 1-7 3-4 3 4 3 3 7-13 5-15 5-16 2-13-2 1-3 1-5-1-2-2-2-1 0 1 2 3 2 4-2 7-6 6-11 14-8 15 3 1 2 16-1 19-1 1-5 1-8 1-4-1-6-1-6 0 0 1 0 2 1 2 1 0 1 3 1 7-1 4 0 7 3 10 5 4 5 4 2 9-2 3-4 5-7 5-3 0-4 1-4 3 0 6-3 10-9 13-3 2-6 5-8 6-2 4-2 4-4-2-2-5-3-5-10-5-8 1-9 2-20 13l-12 13 5 5c3 3 5 6 4 7 0 0-1-1-2-2-4-3-5-2-4 4 3 9-1 18-3 11-1-1-1-1-1 1-1 3-11 11-11 8 0-1-1-2-2-1-1 0-6-3-11-6-7-4-9-6-8-8 0-2 0-5-2-6-1-2-1-3 1-5 2-2 3-4 3-5-1-3 10-8 14-8 3 0 3-1 2-4-3-5-2-6 1-2 2 3 4 4 4 3 0-1 1 0 2 2 2 1 3 2 3 1 0-1 1-2 2-1 1 1 24-18 25-22 0-1-2-1-6-1-6 1-7 0-9-5-1-4-2-9-2-12 0-4-1-6-3-7-2 0-5-3-6-5-2-6-1-9 3-8 3 0 4-1 3-4 0-3 0-6-1-7-1-3 0-4 4-5 10-4 14-6 14-8 0-4 3-5 10-3 6 1 7 2 7 5 0 4 0 4 2 2 2-1 2-2 1-3-3-1-1-3 2-3 4 0 6 2 3 4-1 0-1 1 1 1 3 0 7 6 5 9-1 1 0 1 2-1 2-2 3-1 6 1 3 2 3 2 5 0 1-1 2-2 0-3-2-2-2-9 0-14 2-3 2-3 0 0-2 2-3 4-3 5 0 0-1 0-2 0-2-1-3-4-3-7 0-3-1-8-1-9-2-5 0-4 5 1 3 2 5 4 6 3 0 0 2 1 4 2 5 3 9 3 10-1 1-3 0-4-2-3-2 1-4 0-4-1 0 0-1-1-2-1-2 0-3-1-4-2 0-2-2-3-4-4-2 0-3-1-3-2 1-1 0-2-1-3-1-1-4-4-6-8-4-7-5-13-1-8 3 4 9 7 10 5 1-1 3-1 5 1 4 2 5 2 6-1 1-4 1-3 8 2 4 3 6 4 5 2-3-3-2-6 2-3 1 2 3 2 4 0 2-2 2-3 0-3-5 0-12-4-12-7 0-2 2-4 5-5 4-2 7-10 6-24 0-9-3-22-15-63-8-29-10-55-4-72 2-6 5-13 7-17 2-3 5-9 7-12l3-6 39 0 8 14c9 18 13 30 13 48 0 16-3 27-14 66-10 34-11 44-9 54 3 12 12 21 20 20 3-1 7-1 9-2 9-1 10-2 14-5 3-3 5-2 2 1 0 1-1 4-1 6-1 2-2 6-4 8-1 3-2 5-1 6 0 1-2 2-5 4-2 1-4 2-4 3 0 4-3 9-6 9-2 0-4 1-4 2-2 3-11 4-17 2-5-2-6-2-7 0-1 3 7 9 10 6 1-1 5-2 8-3 14-2 19 9 6 13-4 1-8 3-9 4-2 2-3 9 0 11 3 2 1 7-3 12-5 5-6 18-2 14 4-3 10-1 15 6 3 4 5 9 6 11 1 3 1 4-2 2-2-1-6-2-7-2-2 0-6-1-7-2-2-1-4-2-4-1-1 0 0 11 1 23 2 19 3 22 6 25 5 3 8 4 9 1 1-1 3-1 5-1 4 0 4 4 0 8-2 3-2 4 2 8 2 3 6 6 8 7 6 2 6 6 2 11-1 2-3 5-4 7-2 3-4 4-9 4-4 1-9 2-11 3-5 4-4 6 1 3 3-2 4-2 8 0 4 3 10 15 6 12-1-1-6-2-10-2l-7-1 0 9c1 8 1 9 4 9 2 0 5 1 6 2 2 1 2 1 0 2-1 0 2 1 7 2 7 2 11 5 17 11 8 8 8 9 5 10-1 1-5 2-6 2-5 0-5 6-1 8 2 1 1 2-3 3-3 1-6 2-7 2-2-1-3 0-4 3-1 3-2 5-6 5-2 0-6 1-8 2-4 3-10 3-14 1z m6-77c0-1-1-2-3-2-2 0-4 1-4 2-1 1 0 2 2 2 2 0 4-1 5-2z m-104-65c4-4 8-8 7-8 0 0-4 4-9 8-5 5-8 9-8 9 1 0 5-4 10-9z m49-18c0-3 0-4 1-3 1 0 2-2 3-4 1-5 0-7-3-10l-4-4-3 8c-6 17-6 17 1 17 6 0 6 0 5-4z m20-7c0-1 3-3 7-3 3-1 7-2 7-3 1 0 4-1 7-1 5 0 6-1 5-3 0-2-1-7-2-12-1-10-3-12-8-7-2 2-5 3-6 2-1 0-2 0-3 1-1 2 8 6 12 4 4-1 4-1-8 9-3 3-14 7-21 8-2 0-3 2-4 5 0 4 0 4 7 3 4-1 7-3 7-3z m-13-31c3-1 4-3 4-5 0-2 2-13 4-25 3-12 5-22 5-23 0 0-2 1-4 3-2 3-3 7-3 11 0 3-3 14-6 23-3 10-5 18-5 18 0 0 2-1 5-2z m11-6c0-1 0-2 0-3 0-1 1-3 2-4 1-1 1-2 1-2-1 0-1-1 0-3 1-1 2-3 1-5 0-1 0-3 0-3 1 0 4-1 6-4 3-2 4-3 2-2-2 2-2 1-1-2 0-3 1-4 3-4 4 0 4-6 0-23-4-19-4-20-6-6-2 7-3 16-4 18 0 3-2 12-3 19-2 8-4 17-4 21-1 6-1 7 1 6 1 0 2-2 2-3z m-87-17c-1-1-2 0-2 1 0 1 1 1 2 1 0-1 0-2 0-2z m3-9c-1 0-1 0-1 1 0 1 0 2 1 1 0 0 0-1 0-2z m15-3c0-1-1 0-1 1 0 1 1 2 1 1 1-1 1-2 0-2z m-13-2c-1-1-2 0-2 1 0 1 1 2 2 1 0 0 0-1 0-2z m12-3c-1-1-2 0-2 1 0 1 1 1 2 1 0-1 0-2 0-2z m122-28c1-1 1-2 0-2 0 0-1 1-2 2 0 1 0 1 0 1 1 0 2 0 2-1z m-51-7c0 0-1 0-1 2 0 1 1 1 1 1 1-1 1-2 0-3z m-36-5c0 0-1 0-1 1 0 2 1 2 1 2 1-1 1-2 0-3z m97 0c1-1 1-2 1-2-1 0-2 1-2 2-1 1-1 1-1 1 1 0 2 0 2-1z m-65 36c0-2 0-2 1-2 0 1 0 2 0 3-1 0-1 0-1-1z m124 203c-2-3-9-3-11 0-2 2-2 2-2 0 0-2-1-5-2-8-2-3-4-4-6-3-2 1-3 0-2-2 2-5-1-18-3-18-2 0-3-1-3-2 0-1 1-1 2-1 1 0 14-8 19-12 1-1-22-56-28-67-3-6-6-10-7-10 0 0-2 1-3 3-1 2-4 4-7 4-2 1-4 3-5 3 0 1-5 2-10 3l-9 1 3-4c4-4 7-14 6-18 0 0 1-1 3-2 1 0 2-2 2-4 0-2 1-4 2-5 3-2 1-4-7-17-10-16-12-19-8-19 0 0 3 3 5 8 3 6 15 22 16 21 0-1-2-7-6-14-7-13-8-17-5-17 2 0 18 31 18 35 0 1-1 1-2 0-1 0 0 1 2 3 3 3 22 14 25 14 0 0 1-2 1-3 0-2 1-2 2-1 2 1 3 1 5-3 2-4 2-4 4-2 1 2 3 3 4 2 3-3 21-9 26-7 5 1 7 3 3 4-5 2-3 5 2 5 3 0 7 2 11 6 7 6 7 6 3 8-3 2-3 3-2 5 2 2 1 5-2 11-3 5-5 10-5 11 0 4-8 14-9 11-1 0-3-1-5-1-4 0-5 2-6 6-1 5-1 5-3 1-3-5-13-10-15-7 0 1-1 3-1 4 0 1-2-1-3-5-2-4-5-8-7-10-4-4-5-13-2-18 1-2 0-4-2-8-5-6-14-15-16-13 0 0 4 9 9 20 5 11 13 31 18 44l8 23 8-3c3-1 7-3 8-4 3-2 5-1 5 3 0 3 1 4 5 5 4 1 8 3 9 5 3 3 3 3 0 3-5 0-5 1-1 5 2 1 4 5 5 9 2 6 2 6-2 6-3 0-4 1-4 2 1 1-1 3-4 5-3 1-7 4-10 6-6 5-13 6-14 3z m9-85c0 0-1-1-2-2-1 0-2 0-1 1 1 2 3 3 3 1z m-10-10c0 0-2-2-3-3-3-2-3-2-1 1 2 3 4 3 4 2z m-11-10c0 0-1-2-3-3-2-2-3-2 0 1 2 2 3 3 3 2z m-17-5c0-3 3-7 5-6 0 1 0 3-2 4-1 2-3 2-3 2z m2-38c-3-3-10-4-11-2-1 2-4 0-8-5-7-7-7-8-8-20 0-9 1-11 2-11 2 1 4-1 5-3 3-5 3-5 5-2 1 2 4 3 7 4 3 1 5 0 9-3 2-3 5-5 6-5 2 0 10 9 10 11 0 2 1 3 2 3 0 0 0 3-1 8-2 4-2 8-2 9 1 1 0 4-2 7-2 3-3 4-4 3-1-2-3-1-5 2-2 2-3 4-2 5 1 2-1 2-3-1z m-54-36c-1-3 3-7 8-7 4 0 10-6 10-10 0-2-2-5-5-7l-4-4 6 0c11-1 17-2 21-5 4-3 3 0-1 10-4 9-8 11-8 5 0-1 1-4 3-6 3-1 3-2 2-2-6 0-8 3-8 14-1 9-2 11-3 10-2-2-3-1-5 2-3 3-4 3-6 1-5-2-8-2-6 0 0 1 0 2-1 2-1 0-2-1-3-3z m42-8c-2-3-2-3 1-5 8-7 14-5 11 3-2 5-8 6-12 2z"/>
<glyph glyph-name="onlinejob" unicode="&#125;" d="M433 479c-4-1-13-19-16-32-2-5-3-11-4-15-5-17-10-98-10-155-1-39-2-32-5 21-1 19-3 35-4 36 0 1-1 7 0 14 1 11-2 38-4 36-7-6-9-79-3-118 2-20 2-26-1-16-2 6-2 6-1-2 0-5-1-8-1-7-1 1-3 17-4 37l-3 36 1-39c1-80 12-150 29-201 2-7 4-13 4-13 0-1-17 17-24 27-5 7-6 9-5 11 4 7-6 29-15 34-9 5-16 5-13 1 1-3 4-11 7-20 2-8 6-19 9-24 4-11 5-13 1-8-1 2-3 4-5 3-5-2-11 3-16 13l-5 10 4-2c3-1 6-2 7-3 2-2 2-1 1 2-1 2-3 4-6 4-7 1-9 4-13 18-5 14-4 15 4 10 5-2 6-2 6 0 0 1-4 3-10 5-5 1-10 3-11 3-1 1-1 0 0-1 1-2 5-10 7-18 3-9 7-20 10-25 5-9 6-14 2-10-1 2-4 4-7 4-5 2-8 4-14 15-5 8-5 8 3 4 2-1 5-2 5-1 0 3-3 5-7 5-5 1-8 4-12 17-4 13-4 13 4 9 6-3 6-3 5 0-2 2-13 7-18 7-1 0 10-30 15-40 5-10 5-11-1-6-8 6-17 20-18 26 0 12-11 25-22 28-4 1-5 1-3-1 1-2 4-9 7-16 3-7 7-17 10-22l4-9-8 9c-5 5-13 17-19 27-12 20-13 19-7-4 6-21-4-22-19-2-13 17-14 38-1 23 6-6 9-5 4 1-11 15-21 4-14-14 2-6 2-6 0-2-5 5-13 8-13 4 0-2-1-2-4 2-4 5-10 7-11 4-1-1-2-1-4 0-1 0-1 1 0 2 3 2 1 7-2 7-2 0-2-1-2-2 1-2-9 0-12 2-1 1-3 2-4 2-2 0-5 1-8 2-13 7-14 7-16 5-1-2-2-2-3-1 0 1-2 2-3 1-3-1-5 2-2 4 1 0 0 0-2 0-6-2-8 0-5 5 3 5 3 5-10 9-3 1-7 3-8 4-1 1-1 0 0-2 1-5 4-9 4-6 0 2 1 2 2 2 8-3 8-3 6-5-2-2-3-2-4-1-2 1-3 2-4 2-4-1-9 4-14 12-3 5-6 10-8 10-6 0-9 1-11 4-1 2-2 2-3 1-1-2-3-1-8 0-12 5-17 5-18 2-1-3-1-3-1 0 0 1-3 3-7 4l-8 2 7-1c3 0 6 0 6 1 0 1-1 2-3 2-2 0-4 1-4 3 0 3-1 3-4-1-2-1-4-2-7-1-2 0-5 1-8 2-3 0-4 1-3 3 0 1 0 1-1 0-2-1-4 0-7 2-2 1-5 2-6 1-1-1-1 0-1 1 1 1 1 2-1 2-4 0-8 1-9 3-1 0 2 0 6 0 6-1 18-2 26-2 4 1 4 1 4 11 0 12-2 13-8 10l-4-2 4 4c2 2 6 4 9 5 6 0 31 8 31 10 0 1 1 1 2 1 4-2 11 2 13 8 3 6 6 7 4 0-1-4-1-4 2-3 2 0 4 1 5 1 6 0 10 8 5 9-3 0-3 1 1 4 2 2 5 4 7 6 1 2 3 3 4 2 1 0 1 0 1 1 0 1 1 2 2 2 1 0 1-1 0-4-3-5 0-7 6-4 2 1 4 3 4 4-1 0 0 3 2 4 3 4 4 4 2 0-1-3 0-4 2-3 2 1 5 2 7 2 3 1 9 10 12 19 0 1 1 2 2 2 0-1-1-6-4-12-5-13-5-13-2-13 0 0 2 2 2 4 1 3 3 4 4 4 6 0 18 17 14 22-1 1-1 2 3 3 3 1 6 2 6 3 0 1 1 1 2 1 3 0-3-15-7-18-4-3-2-4 4-3 4 2 5 3 5 7 0 8 11 25 16 25 3 0 2-4-1-7-10-12-3-23 8-12 9 10 11 29 2 20-1-1-3-1-4-1-1 0 1 2 5 4 4 2 7 4 7 5 0 0 1 1 2 0 0 0 4 1 7 3 3 3 7 5 8 5 1 0 2 0 2 1 0 1 1 2 2 2 3 0 14 5 15 7 1 1 3 2 6 2 2 1 4 2 3 3 0 1 1 2 4 2 2 0 4 0 4 1 0 1 2 2 3 2 2 0 4 1 4 2 0 0 13 7 29 15 15 8 27 14 26 14-1 0 2 1 7 3 5 2 9 5 10 6 1 1 4 2 5 2 2 0 3 0 2 1 0 1 1 2 4 2 7 2 12 5 22 11 4 3 8 5 9 5 2-1 13 18 11 19 0 0-4-1-8-4-4-2-26-14-49-26-62-32-196-102-276-145-20-10-38-19-43-20-14-2-24-13-24-26 0-6 0-7-2-6-1 2-1 7 0 12 2 8 1 9-1 6-4-5-3-24 2-31 4-6 11-11 9-6-1 3 0 2 8-3 3-2 7-3 12-3 5 0 10-1 16-4 4-2 19-9 32-15l25-11 0-21c0-28-7-23 81-65 50-24 49-24 54 9 1 7 3 13 3 13 2 0 1-16-3-28 0-2 0-3 1-2 0 0 2 7 4 15 1 8 3 14 4 14 1-1 25-11 52-23 28-13 60-27 73-33 12-5 28-12 35-16 8-3 15-6 17-6 2 0 2-1 2-2 0 0 0-1 2-1 1 0 3-1 5-3 3-2 3-2-1 0-4 1-4 1-2-1 6-6 29-8 27-2 0 1 1 3 4 3 16 4 30 54 33 116l1 17-2-18c-3-24-7-42-13-58-4-10-5-15-4-19 1-6-3-12-9-14-5-1-5 0-1 12 2 5 4 11 4 13 0 2 0 3 1 3 2-1 2 0 6 14 1 6 1 9 0 10-1 1-1 5 0 14 1 7 1 13 1 14-1 1-2-3-3-10-7-48-23-85-31-75-2 3-2 3 1 2 7-1 5 4-2 6-7 3-10 9-6 13 4 3 4 3 9-3 6-7 7-6 10 1 2 7 0 10-5 8-1 0-2 0-2 1 0 3-9 5-13 4-6-3-7-2-10 12-4 14-3 24 2 28 2 1 2 3 2 9-1 6-1 7 1 7 3 0 5 3 5 8 0 1-2 2-3 2-3 0-4-3-7-15-3-10-5-15-6-13-1 1-1 3 0 5 0 1-1 6-2 10-3 8-6 23-7 38 0 5-1 16-2 25-5 39-5 44-1 44 3 0 3-1 2-8 0-8 0-9 3-9 3 0 4 2 5 14 0 8 1 18 2 22 1 8 0 8-3 8-3 0-4-1-4-5 0-8-1-12-4-12-2 0-2 2-2 9 1 6 1 9 0 8-2-2-2 0-2 25 0 43 2 80 5 94l1 7 3-7c2-3 3-7 3-9 0-1 1-2 2-2 3 0 0 8-6 21-2 5 3 25 7 33 2 3 4 7 4 9 0 4 5 15 7 15 5 0 18-20 27-46 4-10 5-12 4-7-2 10-7 26-14 41-8 14-7 15 1 6 3-3 5-5 5-4 0 1 1 2 2 1 2-1 2-2 0-3-1-1-1-3 1-6 1-3 4-10 6-16 2-6 5-15 8-21 5-11 12-37 16-58 3-20 2-20-3-1-2 10-5 22-6 26l-3 7 1-10c1-9 1-11-1-11-1 1-3-1-3-2-1-2 0-3 1-2 1 0 1-3 1-8 0-5 0-12 1-14 6-22 9-106 6-151 0-10 0-14 1-10l1 9 0-11c1-23 8 24 11 77 4 74-16 188-38 218-9 13-16 16-26 14z m18-7c1-1 0-1-2-1-2 1-6 0-10-2l-6-2 4 3c4 4 13 5 14 2z m-240-132c-2-5-7-10-9-8-1 2 4 11 7 13 5 2 5 2 2-5z m-44-19c-2-3-4-4-5-4-1 1 0 3 2 6 5 5 6 3 3-2z m227-68c0-11 0-17-1-16-1 1-2 10-2 22 0 24 3 19 3-6z m99 1l0-8-2 9c0 5-1 12-1 15l0 6 2-7c0-3 1-10 1-15z m-83-89c5-35 10-61 18-94 4-15 4-19 3-18-2 0-3 0-2-2 1-2 0-2 0-2-4 2-16 29-15 32 0 2 0 5-1 7-2 4-2 4 1 1 3-2 3-2 2 2-1 3-2 9-2 15-1 7-3 24-4 39-4 28-6 58-5 55 1-1 3-17 5-35z m-257 0c67-30 78-35 79-36 4-3-4-32-7-30-1 1-24 12-51 24-63 28-57 23-55 45 1 12-2 13 34-3z m138-17c5-8 8-19 5-19-3 0-7 5-11 16-4 11-1 13 6 3z m-18-14c0-3-7 5-8 10-3 10-2 10 3 0 3-5 5-9 5-10z m-135-5c2-1-7 2-16 6-5 2-9 5-9 6 0 1 23-10 25-12z m143-5c4-5 4-6 1-4-2 1-4 1-4 1-1-1-8 7-8 9 0 4 7 0 11-6z m87 4c10-11 14-32 4-27-3 2-12 25-12 30 0 3 5 1 8-3z m-59-19l6-7-7 5c-6 5-13 14-13 18 0 1 4-2 14-16z m98-23c0-3-4 5-5 13-1 4-1 4 2-3 2-4 4-8 3-10z m-20-5c4-6 7-11 6-11-4-3-21 19-21 27 0 3 7-5 15-16z m43 347c-6-2-6-3-4-5 3-2 13-27 13-32 0-1 1-3 2-3 3 0 4-2-4 19-8 21-8 20-3 20 7 0 12-9 7-14-3-3-3-4 0-4 1 0 5-4 9-8 6-7 9-10 9-7 0 1-3 6-7 10-7 7-8 9-6 12 4 8-6 16-16 12z m-70-5c-1-3-3-6-5-8-3-2-4-3-2-4 2-2 2-4 0-12-3-17 9-19 19-4 5 7 3 10-3 4-7-8-11-8-10 0 2 11 4 15 11 18 7 3 11 10 5 8-2-1-4-1-6-2-1-1-2 0-2 2 0 4-5 3-7-2z m-32-20c-4-2-7-4-9-4-2 0-8-14-11-26-2-10 3-5 7 7 3 8 5 12 10 16 8 6 8 6 5-8-5-21 0-18 6 2 5 19 4 21-8 13z m-37-17c-10-6-18-22-13-28 3-3 19 3 19 7 0 3 0 3-8 0-5-2-7-2-7 1 0 1 4 3 9 5 9 4 13 9 13 16 0 4-7 3-13-1z m6-5c0-3-10-7-12-6-1 2 7 8 10 8 1 0 2-1 2-2z m-35-7c-8-5-8-5-13-16-4-12-3-18 1-7 2 4 4 9 5 10 1 2 1 3 2 3 0-1 0-4-2-8-1-4-2-8-2-8 2-2 5 1 7 10 5 14 8 16 4 2-5-15 0-13 5 4 6 15 5 16-7 10z m-25-17c-6-11-7-12-6-4 0 3 0 6-1 6-2 0-5-6-5-15 0-7-1-10-4-13-4-4-6-8-3-8 3 0 5 3 12 14 3 6 8 14 11 18 3 3 5 7 5 9 0 4-3 2-9-7z m119 0c-6-2-12-5-13-6-4-4-14-77-14-102l0-13 28 0 0 9c0 16 5 64 9 90 2 14 4 25 4 25 0 1-2 1-14-3z m25-5c0-2-1-7-2-11 0-5 0-6 2-5 1 1 1 6 1 11 0 5-1 8-1 5z m-134-23c-10-4-10-4-17-40-4-21-5-87-2-98 2-5 18-12 19-8 0 1 3 0 7-2 7-4 11-3 15 5 4 7 5 71 1 81-5 13-12 16-20 6l-5-5 2 10c1 11 8 46 10 51 1 3 1 3-10 0z m4-87c3-9 2-33-3-33-3 0-4 6-4 19 0 17 3 24 7 14z m-70 53c-6-2-9-20-4-20 8 1 10 2 11 9 1 4 2 8 2 9 1 3-3 4-9 2z m120-11c-25-4-33-51-12-69 8-7 11-15 5-15-2 0-11 9-11 11 0 6-3-3-5-13-2-15-2-16 10-23 20-13 35-2 35 26 0 17-2 21-14 32-7 6-10 11-10 13 1 5 6 4 10-2 2-4 3-4 4-3 7 22 10 35 8 37-3 3-13 8-15 7-1 0-3 0-5-1z m164-7c-4-1-4-2-4-24l0-22 7 0c10 0 14 10 5 11-6 0-8 8-2 8 5 0 5 9 0 11-5 1-4 7 2 7 4 1 5 2 5 6 0 5-5 6-13 3z m-27-17c-1-10-2-20-2-23-1-5-1-6 2-6 4 0 6 3 6 13 0 6 0 6 2 3 2-1 3-6 3-9 0-6 0-7 4-7 4 0 4 1 3 4 0 2-1 11-1 20 1 22 0 22-9 22l-7 0z m11 5c0-5-2-7-4-6-1 1 0 10 2 10 1 0 2-2 2-4z m-21 5c-4-19-4-39-1-39 3 0 4 4 6 28 1 14 1 16-2 16-2 0-3-2-3-5z m-333 2c-2-7-3-8-3-5 0 5-22 2-22-3 0-2-1-2-1-1-4 10-8-4-8-23 0-6 4-8 6-3 1 1 1 0 1-1 0-3 1-3 10-3 5 0 9 0 9-1 0 0 4-1 8-1 7 0 7 0 7 5 0 4 0 5-2 5-3 0-4 5-1 6 2 2 2 11 0 12-2 0-1 2 1 4 6 6 6 11 0 11-2 0-5-1-5-2z m82-1c-4-1-5-2-6-10-1-11 1-56 2-62 1-3 1-4-1-4-6 0-4-11 2-14 15-6 17-3 13 19-3 18-3 24 0 15 7-23 23-32 33-18 5 7 5 46 1 60-7 24-27 20-35-8-1-3-1-1-1 9 1 10 0 14-1 14-1 0-4-1-7-1z m30-43c0-16-2-20-6-9-2 8-2 19 0 25 3 8 5 2 6-16z m-66 21c0-15 0-16-1-9-2 12-3 13-6 12-5-2-1-35 5-49l3-5-1 6c0 4 0 7 1 7 1 0 1 2 2 4 0 5 0 5 1-1 1-3 3-5 3-4 1 0 1 2 1 5-2 4-6 33-5 34 0 1 2-3 3-9 3-16 12-45 14-47 1-2 1-1 1 1-3 8-5 25-6 41 0 10 0 18-1 18-1 0-1-6-1-13 0-15-3-14-5 1 0 5-2 10-4 12-1 1-2 4-1 8 0 3 0 6-1 6-1 0-1-8-2-18z m-4-12c1-5 2-11 2-14 1-4 1-6 0-5-1 1-3 5-3 9-1 5-2 10-2 13-1 3 0 5 0 5 1 0 3-4 3-8z m-84 26l-6-3 5 0c3 0 6 1 7 2 2 3 0 3-6 1z m70-11c-4-2 0-34 6-47l2-5 0 6c-1 3 0 6 1 7 2 0-3 37-5 39-1 0-2 0-4 0z m6-26c1-6 0-7-1-6-1 1-2 7-3 14 0 12 1 8 4-8z m-16 21c0-2 0-4 1-3 1 0 2 0 2-2 0-1-1-3-2-3-4-3 1-23 7-25 2 0 2 1 1 7-1 4-2 12-3 17-1 13-6 20-6 9z m220-38c-12-11-7-40 7-47 12-6 19 2 18 22-2 24-14 36-25 25z m166-14c0-6 0-8 1-5 0 3 0 8 0 11-1 3-1 0-1-6z m-78-43c-2-4 0-7 3-5 4 3 5 9 1 9-2 0-4-2-4-4z m21-3c0-2-2-9-3-16-6-18-6-21-4-21 1 0 4 8 6 18 5 21 5 23 3 23-1 0-2-2-2-4z m4-16c-2-10-4-19-5-21-1-1 0-2 2-2 2 0 2 1 2 4 0 2 1 5 2 5 2 1 2 0 1-5-1-8 2-9 4-1 3 11 7 36 5 37 0 0-1-2-2-6-1-8-4-8-3 1 0 11-2 6-6-12z m19 12c-6-9-10-36-6-40 4-4 6-2 8 8 3 12 3 12 1 12-1 0-2-1-2-2 0-2-1-3-2-2-3 0-2 7 1 11 0 1 2 1 3 1 2-2 5 9 3 13-2 4-2 4-6-1z"/>
<glyph glyph-name="mobile-acesry" unicode="&#126;" d="M202 474c-41-7-78-27-108-57-31-30-50-67-57-110-3-18-4-48-1-64 1-6 2-14 2-18-1-12 7-21 19-21 9 0 16 5 18 13 2 6 2 8-1 14-6 12-8 26-7 50 2 45 18 82 51 114 24 24 52 39 87 46 13 3 20 4 39 3 28-1 43-5 66-16 48-22 80-62 94-113 4-14 4-20 5-42 0-14-1-26-2-26-1-2-13 12-36 41-75 97-90 116-91 116-2 0-143-110-143-112 0-1 14-21 32-44 18-23 56-71 84-107 28-35 60-77 72-92 12-16 23-29 24-28 1 0 33 25 73 56l71 56-8 10c-51 64-48 61-47 68 2 16 4 68 3 78-3 37-14 68-34 97-31 47-80 79-135 88-18 4-51 3-70 0z m129-176c29-36 68-87 89-113 19-25 36-47 35-48-1-4-102-82-103-81-6 7-180 230-180 231 0 1 12 11 27 23 15 11 38 29 52 40 19 15 25 19 26 17 2-1 26-32 54-69z m-89 5c-4-3-4-12 0-14 5-2 10-2 13 1 8 9-5 22-13 13z m18-27c-2-3-2-5-1-8 2-6 6-7 12-6 10 3 8 19-3 19-4 0-6-2-8-5z m65-85c1-1 6-7 10-13 12-15 13-16 9-15-2 1-8 2-12 2-9 2-9 1-9-3 0-3 0-4 13-6 7-1 13-2 13-2 1-1 0-7-1-14-2-13-1-15 4-15 2 0 3 2 4 11 1 7 2 11 2 11 1 0 6-6 11-13 6-8 11-14 11-14 1 0 3 7 4 15 1 8 2 17 3 19 1 3 0 3-8 4-4 1-10 2-13 3l-6 1 1 12c1 6 1 13 1 13 1 2-6 3-26 6-10 1-12 0-11-2z m27-9c1-1 1-4 0-7l-1-6-3 4c-7 9-7 10-2 10 3 0 6 0 6-1z m25-37c0-3-1-6-1-6-1 0-4 3-6 6l-5 6 6 0c6 0 6 0 6-6z"/>
<glyph glyph-name="shopsale" unicode="&#92;" d="M222 506c0-1 1-2 2-1 1 0 1-1 1-4-1-4-1-4 2-4 1 0 2 0 0 1-1 0-1 2 0 4 1 2 1 3-2 4-2 2-3 2-3 0z m281-45c-1 0 0-2 1-4 1-3 1-3-3-3-4 1-4 1-4-3 0-2 0-4 1-4 1 0 2 1 1 3-1 1 0 2 2 2 2 0 3-2 3-5-1-1 0-1 1-1 1 1 1 4 1 8-1 8-1 9-3 7z m-426-7c-8-4-10-9-10-31l0-20-34-53c-38-60-39-62-21-76 15-11 44 0 44 17 0 3 12 28 26 58l26 54 22 0c22 0 22 0 20-4-4-8-36-100-36-105 0-22-29-31-50-16-3 3-6 5-6 4 0-5 6-14 11-16 2-1 4-3 4-4 0 0 2-1 4-1 2 0 3 1 3 1-1 1 1 2 5 4 8 2 7 9 7-53l1-53-5-1c-4-1-7-5-5-9 1-3 8-3 81-3l80 0 1 4c1 5 0 8-4 8-4 0-4 1-4 58 0 32 0 58 1 58 0 0 3-1 5-3 16-8 35 1 40 18 1 4-2 64-6 103l0 10 21 0c20 0 21 0 22-4 4-17 21-103 21-105 0-2 2-6 4-10l3-6-6 1c-5 0-8 0-10-2-3-4-12-7-19-7l-6 0 0-186-133 0c-149 0-138 1-138-13 0-16-23-15 219-15 242 0 219-1 219 14 0 13-1 14-29 14l-25 0 0 93c0 87 0 93-3 94-2 0-5 2-8 4-3 3-7 4-12 3l-6 0 3 6c2 3 4 7 4 10 0 4-32 98-36 106-2 3 0 3 20 3l22 0 2-6c2-3 13-27 26-53 14-28 24-49 24-52 0-18 29-29 44-18 18 14 17 16-23 79l-33 53 0 19c0 21-1 24-9 28-5 3-350 4-358 1z m63-6c-45-1-61-1-63-3-2-2-3-2 0 1 2 3 7 3 63 2l61 0z m262 0c-16-1-44-1-60 0-17 0-3 0 30 0 33 0 47 0 30 0z m-183-9c2-1 3-3 3-5 0-3-5-3-6 0-1 2-2 3-5 3-6-1-5-5 2-7 9-3 12-7 9-13-3-7-17-7-21 0-4 5 2 8 5 3 4-4 10-4 10 0 1 2-1 4-6 5-8 2-11 7-9 12 3 5 14 7 18 2z m14-4c1-8 12-8 13 1 1 13 6 6 6-9 0-16-5-23-6-8 0 6-1 6-6 6-6 0-6 0-7-6 0-5-1-7-3-7-2 0-4 22-2 28 1 4 5 1 5-5z m48 3c9-9 3-27-9-27-9 0-14 6-14 16 0 14 13 20 23 11z m28 1c8-5 3-16-8-16-3 0-4-1-4-5-1-4-2-6-3-6-3 0-5 22-3 28 1 3 13 3 18-1z m-125-5c1 0 2-2 1-3-1-1 0-3 1-3 1 0 1-1 0-3-1-2-2-5-2-7 0-2-1-3-3-3-2 0-4-1-4-2 0-3-16-1-23 2-4 2-5 3-4 3 7 1-12 3-24 3-11 0-27-2-20-3 1 0 0-1-3-3-2-1-6-2-7-1-1 0-2 0-3-2-1-5-9 4-8 11 0 3 0 8 0 9 0 3 2 3 12 4 15 0 84-1 87-2z m243-1c1-2 0-12-2-13-1 0-1-1 0-2 4-2 0-4-9-4-8 0-16 4-10 4 9 1-9 3-22 3-13 0-30-2-23-3 1 0 0-1-3-2-2-2-5-2-6-2-1 1-2 0-2-1 0-1-4-2-9-2-5 0-8 1-8 2 0 1-1 2-2 1-5-2-8 2-6 7 1 2 2 5 1 7 0 1 1 2 3 2 2 0 2 1 1 1-1 1-2 2-2 3 0 3 97 3 99-1z m-335-37c-5-4-8-8-8-9 0-2-3-5-5-8-3-3-5-7-5-7 1-1 0-4-2-8-2-3-4-7-4-8 0-1-1-3-2-4-1-1-4-6-5-10-1-4-3-7-3-7-1 0-2-2-2-3 0-1-1-3-2-3-1 0-1 0 0-1 0 0-1-3-2-5-1-2-2-4-1-4 0 0-1-1-4-3-3-2-4-4-3-4 3 0-6-5-9-5-3 0-4 1-4 4 0 2 0 3 2 2 2-1 2-1 0 1-3 3-3 5 0 5 1-1 2 0 3 2 0 1 2 4 3 6 1 2 2 5 2 6 0 1 2 5 5 8 3 3 5 7 5 8-1 1 1 4 4 7 3 2 5 5 5 6 0 4 7 11 10 11 2-1 2-1-1 1-3 3-3 3 0 3 1 0 2 1 2 2-1 1 1 4 3 7 2 5 3 8 2 12l-1 5 25 0z m92 5c-6-5-10-12-11-16 0-3-2-6-3-7 0-1-1-3 0-5 1-1 0-5-2-7-1-2-2-5-2-6 1-1 1-3 0-4 0-1-1-4-1-7 0-3-2-7-3-9-1-2-2-2 0-1 1 0 2 0 2-1 0-1-1-2-2-3-1 0-1-2-1-3 1-1 0-3 0-3-1-1-1-4-2-6 0-11-5-16-14-16-6 0-7 1-4 2 3 1 3 1 0 2-2 0-3 0-2 2 0 2 0 3-2 3-2 0-2 0-1 2 3 3 13 30 13 34 0 1 1 3 2 4 2 0 2 1 2 2-1 1-1 3 1 5 1 1 1 3 1 5-1 1 0 3 1 4 2 1 3 4 3 6 0 2 0 6 1 8 2 3 1 6-1 11l-3 6 15 0c13 0 15-1 13-2z m51-5c-3-18-8-101-7-103 1-4-10-17-16-21-14-7-28-2-41 16-2 2 16 97 21 113 1 1 6 2 22 2l21 0z m30 2c-1-2-2-8-2-12 0-4-1-7-2-7-2 0-2-1 0-2 1-1 2-2 1-3-1-1 0-2 1-2 1 0 1-4 1-8-1-5 0-9 0-9 1 0 1-5 1-11 0-6 1-14 1-18 2-14 0-18-10-18-7-1-9 0-9 2 0 1 0 2-1 2-2-1-2 18 0 20 1 1 1 3 0 4-1 2-1 4 0 4 0 0 1 3 1 7-1 5 0 8 0 9 1 0 1 4 1 8-1 5 0 8 1 8 1 0 1 1 1 3 0 1 0 2-1 2 0 0-1 4-1 9 0 7-1 11-3 13l-3 4 26 0z m88-1c-2-3-3-6-2-7 0 0 0-1-1-1-1 0-1-1 0-2 2-2 3-5 3-9-1-3 0-6 0-5 1 0 3-5 5-11 3-7 5-12 6-12 1 0 1-1 0-2-2-2-1-3 1-7 2-3 3-5 3-6-1-1 0-2 1-3 1-1 1-3 1-4 0-2 1-4 2-4 2-1 3-7 2-14 0-3-14-3-15 0-1 1-2 2-2 1-1 0-2 2-3 4 0 3-2 7-3 9 0 2 0 4 0 4 1 0 2-1 3-2 1-2 1-2 1 0 0 1-1 2-3 3-1 0-2 2-2 4 0 2-1 3-1 3-1 0-2 3-2 7-1 13-1 18-3 21-3 4-3 10-1 13 2 2 2 2 0 2-2-1-4 2-6 9 0 2-3 6-6 9l-5 6 31 0z m83 0c0-6 2-12 6-16 1-2 2-4 1-5 0-1 1-3 3-4 1-1 3-3 3-4 0-2 1-3 2-3 1 0 1-1 1-3 0-1 2-5 5-8 2-2 4-6 4-7 0-1 2-3 4-6 2-2 5-7 7-11 2-3 4-6 5-6 0 0 1-1 1-2 0-2 1-3 2-3 1 0 1-1 0-4-1-2 0-3 1-2 2 1 2 1 1 0-1-3-18-3-18 0 0 1-1 3-2 4-2 2-2 3-1 5 1 1 2 3 1 3-1 1-1 0-1-1 0-3-5 4-5 7 0 2-1 4-2 4-1 0-2 3-3 5 0 3-2 7-3 8-2 1-3 2-2 2 1 0 1 1 0 2-1 1-2 3-1 4 1 0 0 1-1 1-1 0-2 0-1 1 0 1 0 2-1 2-1 0-2 2-2 3 0 2-1 4-2 6-2 1-3 3-3 3 0 1-1 4-3 7-2 3-4 7-4 8 0 2-1 4-2 4 0 0-4 2-7 6l-7 6 12 0 12 0z m-393-99c6-1 6-2 4-4-3-5-16-9-22-8-8 2-16 6-16 9 0 3 21 5 34 3z m117-1l4-1-5-6c-5-6-7-7-19-7-11 0-23 13-12 14 7 2 28 1 32 0z m112 0c3-1 4-1 2-3-5-7-14-10-28-9-4 0-10 7-10 11 0 2 27 3 36 1z m113 0l4-1-3-4c-2-3-4-6-4-7 0-1 0-1-1-1-1 1-2 0-2-1-1-2-18-2-19 0 0 1-3 4-5 7-6 5-6 6-1 7 6 2 27 1 31 0z m110 1c10-2 10-4 0-9-11-6-20-5-30 4-5 5 9 7 30 5z m-366-26c3-2 8-3 12-3 5 0 11 1 14 3 7 4 19 4 19 0 0-1 2-3 3-3 2-1 4-2 4-3 0-1 1-1 3-1 2 0 4-1 4-2 0-7 31 2 34 10 1 2 1-24 1-56 0-37 1-58 2-59 1 0-27 0-61 0-35 0-63 0-61 0 3 1 3 6 3 56 0 31 0 57 1 58 1 4 16 4 22 0z m278-50l1-43-89 0 0 43c0 23 1 42 1 43 1 1 21 1 44 1l43-1z m-91-42c4-1 4-7 1-9-2-2-3-2-6 0-3 2-3 8 0 9 1 0 2 1 2 1 1 0 2-1 3-1z m92-53c0-24-1-42-2-43-1-1-19-1-44-1l-43 1 0 83 89 0z m7-46c2-2-1-8-4-8-4 0-5 3-4 6 1 3 6 4 8 2z m-149 352c-5-7-1-17 6-16 2 0 5 2 6 5 5 10-6 20-12 11z m31 0c0-4 1-5 4-5 4 0 5 1 4 4-1 6-8 7-8 1z m-112-130l-5-4 20 0c18 0 19 0 16 3-5 5-25 5-31 1z m17-106c-17-15-47-25-73-24-14 0-18-1-7-3 8-2 45 2 50 5 2 2 4 2 5 2 1-1 2 0 3 1 0 2 3 3 5 3 3 0 5 0 4 1-1 1 7 6 10 6 1 0 2 0 2 1 0 1 2 4 5 6 3 4 5 8 3 8 0 0-3-3-7-6z m189 10c-5-4-16-9-23-12-15-6-15-6-1-4 16 3 32 11 35 20 1 3-1 3-11-4z m117 232c-1-1-2-2-3-1-1 1-2 1-1 0 1-1 0-2 0-4-1-1-1-2 0-4 1-2 1-2 1 1 0 3 1 4 2 3 1-1 2 0 1 1-1 1 0 2 1 2 1 1 2 2 1 2-1 1-2 1-2 0z m-9-10c0 0 0-3-1-4-1-3-1-4 1-2 4 2 5 2 9 2 1 0 2 1 2 3 0 2 0 2-2 0-3-3-4-3-7 0-2 1-3 2-2 1z m5-14c-2-5-1-14 1-14 1 0 1 2 1 5-1 3-1 4 1 3 2-1 3 0 3 0 0 1-1 2-2 3-2 1-3 2-2 4 0 1 0 2 0 2-1 0-2-1-2-3z m-431-112c-7-4-6-4 14-4l20 0-4 3c-5 4-23 5-30 1z m224 1c-7-4-3-5 16-5l19 0-4 3c-5 4-26 5-31 2z m112-2l-3-3 19 0c19 0 19 0 15 3-7 4-27 5-31 0z m39-23c-3-3-9-6-13-7-7-3-11-7-6-7 2 0 3-1 3-2 0-1 1-2 3-2 2 0 4 1 4 2 0 1 1 2 2 2 3 0 6 2 9 8 2 3 4 10 3 10 0 0-2-2-5-4z m-161 2c0-5 6-13 10-13 7 0 6 1-2 8-6 5-8 7-8 5z m-235-12c-1-10-1-176 1-178 4-7 10 10 9 29 0 8 0 39-1 69 0 52-2 70-6 83-1 3-2 2-3-3z m405 2c-5-22-6-30-6-72 0-24 0-45-1-45-3 0 1-55 4-61 4-6 5-6 6-2 1 5 1 175-1 180l-1 5z"/>
<glyph glyph-name="kitchen" unicode="&#57347;" d="M222 444c-1-1-2-14-2-28l0-25-15-25c-24-38-27-36 51-36 78 0 75-2 51 36l-15 25 0 25c0 35 3 32-36 32-30 0-32 0-34-4z m54-31l0-20-40 0 0 39 40 0z m12-46c7-10 12-20 11-20-1-2-85-2-86 0-1 0 3 7 7 15 5 7 10 16 12 19l3 5 41 0z m-283 77c-2-3-2-129 0-132 3-3 159-3 162 0 3 3 3 129 0 132-3 3-159 3-162 0z m149-66l0-53-135 0 0 106 135 0z m-30 16c-3-3-1-32 2-33 3-1 4 0 5 12 0 18-2 26-7 21z m221 50c-3-3-3-129 0-132 3-3 159-3 162 0 2 3 2 129 0 132-3 3-159 3-162 0z m148-66l0-53-135 0 0 106 135 0z m-111 14c-4-10-1-33 4-31 5 2 4 33 0 34-2 0-4-1-4-3z m-378-157c-4-4-4-162 0-167l3-4 498 0 3 4c4 5 4 163 0 167-5 4-499 4-504 0z m126-46l0-33-113 0 0 67 113 0z m245-38l0-72-119 1-119 0 0 143 238 0z m120 0l-1-71-111 0 0 69c-1 38 0 70 0 71 1 2 14 3 56 3l56 0z m-366-37l0-34-111 0-1 34 0 33 113 0z m-75 79c-3-3 2-5 19-4 14 0 17 1 17 3 1 4-34 5-36 1z m354-42c1-13 1-16 3-16 2 0 3 3 3 16 1 16 1 17-3 17-3 0-3-1-3-17z m-353-38c-7-4-1-7 17-7 17 0 23 3 17 7-3 2-31 2-34 0z"/>
<glyph glyph-name="job" unicode="&#57348;" d="M268 507c-33-12-42-44-24-88 27-63 76-46 89 30 7 40-29 72-65 58z m-50-154l-35-11-8-13c-4-7-11-19-16-28-5-10-10-16-12-16-30 4-82 8-85 7-6-3-4-11 11-42 29-61 35-78 24-78-5 0-17-14-18-22-3-16 5-27 26-35 15-5 14-2 11-38-2-20-2-24 0-27 3-3 51-18 66-21 7-1 8-1 8-10l0-10 94 1 95 0 0 50 1 50 25 12c27 13 43 25 47 37 8 24-13 91-46 148-8 14-15 27-17 30-5 8-72 29-74 22-2-9-13-61-13-62 0 0-2 0-5 1-3 1-4 3-4 17 0 18-4 24-12 20-4-2-5-5-5-21 0-16 0-17-4-17-5 0-5 2-13 41-3 13-6 25-6 25-1 0-16-4-35-10z m84-80c15-39 36-107 36-117 0-4-2-6-13-9-16-4-25-14-25-25 0-18 15-30 31-24 9 3 9 3 7-22l-2-23-23-7c-46-13-83-17-116-10-17 3-68 17-72 19-1 1-1 11 0 28l2 26 6 0c27 0 26 33-2 45-10 5-10 5-16 21-8 23-29 72-39 92-5 9-9 17-8 17 0 0 12-2 25-3 60-8 106-7 165 4 40 7 36 8 44-12z m83-38c19-45 19-58 1-68l-8-3-1 21c-2 35-3 69-1 68 1 0 5-9 9-18z m-125 10c-14-6-9-28 9-39 5-3 12-7 15-9 17-9 16-23-2-20-8 1-9 0-6-8 3-8 23-8 31 0 9 9 3 29-11 38-22 13-27 17-28 21 0 6 7 9 15 7 4-1 4-1 3 3-1 3-1 6-1 7 0 4-18 4-25 0z m-148 0c0-1 6-15 14-31 17-33 18-36 10-36-6 0-6-1-3-9 1-5 3-6 11-6 19 0 18 9-3 53l-14 30-8 0c-4 0-7-1-7-1z m35-5c-11-13 20-72 42-78 27-8 29 22 5 58-14 20-38 31-47 20z m28-17c13-15 25-46 18-48-7-3-27 26-32 46-3 12 4 13 14 2z m20 18c-1-2 1-9 5-16 3-6 11-24 17-38l12-26 15 1c29 1 33 28 6 40-7 4-7 4-4 9 5 8-2 23-15 29-11 5-34 5-36 1z m33-15c5-5 4-15-1-16-5 0-15 19-13 22 3 2 10-1 14-6z m17-35c7-8 8-14 1-17-6-2-7-2-12 10-7 15 1 20 11 7z m-84-49c-3-5 1-12 9-13 24-4 51-4 53-1 4 5 1 12-4 13-13 3-56 4-58 1z m85-1c-5-1-10-1-10-2 0-1 4-34 6-41l1-7 15 2c8 0 18 2 23 2l7 1-3 21c-1 11-2 21-2 23 0 2-13 3-37 1z m-79-28c-6-2-3-12 4-15 17-6 55-5 58 1 3 9-2 12-24 12-11 0-24 1-28 1-4 1-9 2-10 1z m-1-34c-13-11 9-17 59-17 44 0 69 4 70 13 1 7-4 9-17 6-16-4-77-5-93-1-14 2-15 2-19-1z"/>
<glyph glyph-name="part-time" unicode="&#57350;" d="M134 413c-4-2-4-13 0-13 2 0 3 2 3 7 0 9 0 9-3 6z m7 0c1 0 4 0 6 0 1 1 0 1-3 1-3 0-4 0-3-1z m223-6c0-5 0-7 2-7 2 1 3 3 3 6 0 4 2 6 7 7 5 1 5 1-3 2-9 0-9 0-9-8z m-328-9c-2-2-1-96 0-99 1-3 6-4 29-4 15 1 37 1 48 2 18 2 13 2-25 2l-47 1 0 93 46 0c24 0 100 0 168 0 67 0 138 0 156 0l34 0 12-23 12-22-12-24-12-23-34-1-33-2 34-2c19 0 35-1 36 0 1 1 8 13 15 27l14 25-14 25-14 25-206 0c-113 0-207 0-207 0z m8-51l1-44 389 0 8 22 8 22-8 22-8 22-390 0z m328 9c4-4 3-17-1-22-8-9-23-2-23 10 0 14 13 20 24 12z m-240-4c1-6-3-11-9-11-4 0-5-1-5-6 0-3-2-5-4-5-2 0-3 3-3 14l0 15 10-1c9-1 11-1 11-6z m22-7c5-13 5-20 0-12-2 2-5 4-8 4-3 0-6-2-8-4-5-8-6-1-1 12 7 17 11 17 17 0z m31 7c0-3-1-6-2-7-3-1-2-3 1-7 4-7 4-8 0-8-2 0-5 3-8 7-5 7-8 6-8-2 0-3-1-5-3-5-1 0-2 6-2 14l0 15 11-1c9-1 10-1 11-6z m26 4c0-1-2-2-4-2-4 0-5-2-5-12 0-16-5-15-6 1 0 9-1 11-5 11-2 0-4 1-4 2 0 1 6 2 12 2 7 0 12-1 12-2z m35 0c0-1-2-2-4-2-4 0-5-2-5-12 0-9 0-12-3-12-3 0-3 3-3 12 0 10-1 12-5 12-2 0-4 1-4 2 0 1 5 2 12 2 7 0 12-1 12-2z m8-11c0-8-1-14-3-15-2 0-3 3-3 14 0 11 1 14 3 14 3 0 4-2 3-13z m16 5l3-8 2 8c1 6 3 8 6 8 4 0 4-1 4-14 0-15-4-20-4-5l-1 10-2-9c-3-11-8-12-10-3l-1 7-1-6c-1-4-3-7-4-8-2 0-3 3-3 14 0 13 0 14 4 14 3 0 5-2 7-8z m41 6c0-1-3-2-6-2-5 0-7-1-7-3 0-2 2-4 7-4 3 0 6 0 6-2 0-1-3-2-6-2-9 0-9-6 0-7 11-1 9-5-3-6l-10 0 0 28 9 0c6 0 10-1 10-2z m33-9c0-14-4-18-12-16-4 1-5 3-5 6 0 2 1 4 2 4 1 0 2-1 2-2 0-1 1-2 3-2 3 0 3 2 3 10 0 9 1 11 4 11 2 0 3-3 3-11z m55 4c1-3 1-6 2-7 3-3 2-9-2-12-3-1-8-2-12-2l-8 0 0 29 10-1c10-1 10-1 10-7z m-177-10c0-1-2-2-5-2-3 0-6 1-6 2 0 1 3 2 6 2 3 0 5-1 5-2z m134 10c-3-6 0-13 5-14 6-1 10 7 7 13-3 5-11 5-12 1z m-238 0c0-2 2-4 4-4 2 0 4 2 4 4 0 1-2 3-4 3-2 0-4-2-4-3z m26-4c0-2 1-4 2-4 1 0 2 1 2 2 0 1-1 3-2 4-1 0-2-1-2-2z m24 4c0-2 2-4 5-4 4 0 6 2 6 4 0 2-2 3-6 3-3 0-5-1-5-3z m217 0c0-3 2-4 5-3 3 0 5 2 5 3 0 1-2 2-5 3-3 0-5-1-5-3z m0-11c0-2 2-3 6-3 3 0 5 1 5 3 0 2-2 3-5 3-4 0-6-1-6-3z m-246-42c1-1 3 0 4 0 1 1 0 2-3 1-2 0-3 0-1-1z m30-1c12-1 51-1 87-1 36 0 75 0 87 1 12 1-25 2-87 2-63 0-100-1-87-2z m201 1c1 0 4 0 5 0 1 1 0 1-3 1-3 0-4 0-2-1z m-238-4c-1-2 1-14 3-14 1 0 2 3 3 6 0 4 2 6 6 7 4 2 4 2-3 2-4 0-8 0-9-1z m232-6c0-5 1-8 2-8 2 0 2 1 3 9 0 1 2 3 5 4 5 2 5 2-2 2-8 0-8 0-8-7z m-305-16c-2-3-8-14-14-25l-10-18 14-27 15-27 10 1c5 1 20 2 34 2 15 0 25 1 25 2 0 1-13 2-33 2l-34 0-11 22c-6 12-11 23-11 25 0 2 5 14 11 25l11 21 202 0 202 1 0-94-44 0c-25 0-45-1-46-2-1-1 20-2 46-3 34-2 47-1 49 0 1 3 2 95 1 99-1 2-37 3-207 3l-206 0z m46 0l-28-1-8-21-8-21 8-22 8-23 391 0 0 87-167 1c-92 0-180 0-196 0z m26-32c0-3-3-4-7-4-4 0-6-1-6-3 0-2 2-3 5-3 3 0 5-1 5-2 0-1-2-2-5-2-4 0-5-2-5-6 0-3-2-5-4-5-2 0-3 2-3 12 0 7 1 14 2 14 0 1 5 2 9 2 6 0 9-1 9-3z m10-10c1-9 1-11 5-11 5 0 6 4 6 15 0 5 1 9 3 9 1 0 2-6 2-13 0-12-1-14-6-16-4-2-6-2-11 2-4 3-5 5-5 15 0 16 5 15 6-1z m102 9c1-2-1-3-3-3-4 0-5-1-5-10 0-9-1-11-3-11-3 0-3 2-3 11 0 8-1 10-4 10-1 0-3 2-3 4 0 3 2 3 10 3 6-1 11-2 11-4z m10-10c0-11-1-14-4-14-2 0-3 2-3 12 0 7 1 14 2 14 3 4 5 1 5-12z m16 4l2-9 2 9c2 7 4 9 7 9 3 0 4-2 5-14 0-11 0-13-3-13-2 0-3 2-4 7l0 7-2-7c-1-4-3-7-5-7-2 0-4 3-5 7l-2 7 0-7c-1-5-2-7-4-7-2 0-3 2-3 12 0 7 1 14 1 15 4 3 8-1 11-9z m42 6c0-2-2-3-7-3-4 0-8 0-8-2 0-1 3-2 7-2 4 0 6-1 6-3 0-2-2-3-6-3-5 0-7-2-7-4 0-2 2-3 8-3 4 0 7-1 7-2 0-1-4-2-11-2l-10 0 0 28 10 0c5-1 10-2 11-4z m31-9c0-11-1-13-5-15-3-2-5-2-8 0-5 2-6 8-1 8 1 0 3-1 3-2 0-1 1-2 2-2 1 0 2 5 2 10 0 6 1 12 2 12 3 4 5 1 5-11z m28 7c2-3 4-7 4-10 0-5-9-15-14-15-5 0-14 10-14 16 0 7 8 15 14 15 3 0 7-2 10-6z m26 4c3-2 4-5 4-14l-1-11-10-1-10-1 0 29 7 0c3 0 8-1 10-2z m-226-11c0-11 0-11 6-11 4 0 7-1 7-2 0-1-4-2-10-2l-10 0 0 13c0 10 1 13 4 13 2 0 3-3 3-11z m24 0c0-11 0-11 6-11 4 0 7-1 7-2 0-1-5-2-10-2l-10 0 0 13c0 10 1 13 3 13 3 0 4-3 4-11z m26-6c0-2-2-3-6-3-5 0-7 2-3 5 2 3 9 2 9-2z m134 8c-2-7 1-13 6-13 6 0 9 6 7 13-1 3-3 4-7 4-3 0-5-1-6-4z m29 2c0-1 3-2 6-2 3 0 5 1 5 2 0 2-2 2-5 2-3 0-6 0-6-2z m0-12c0-2 2-3 6-3 3 1 5 2 5 3 0 2-2 3-5 3-4 1-6 0-6-3z m-246-42c0-1 2-2 3-2 2 0 4 1 4 2 0 1-2 2-4 2-1 0-3-1-3-2z m11 0c0-1 25-2 56-3 62-2 160 0 160 3 0 1-49 2-108 2-59 0-108-1-108-2z m220 0c0-1 1-2 3-2 2 0 3 1 3 2 0 1-1 2-3 2-2 0-3-1-3-2z m-235-28c0-38 2-83 5-83 1 0 1 19 0 52l-1 52 6 1c5 1 5 1-2 1l-8 0z m231 13c1-5 2-29 2-53 0-27 1-43 2-43 1 0 2 19 2 52l0 52 6 1c4 1 3 1-4 1l-9 0z"/>
<glyph glyph-name="fridge" unicode="&#41;" d="M134 508l-4-4 0-140 252 0 0 140-4 4-4 4-236 0z m24-94c0-15 0-15-3-10-3 7-3 46 0 52 3 5 4-10 3-42z m-28-215l0-158 252 0 0 316-252 0z m28 77c0-15 0-15-3-11-3 6-3 44 0 52 3 5 4-9 3-41z m-28-251c0-13 4-18 15-18 6 0 7-1 7-4 0-3 1-3 9-3 9 0 10 0 10 3 0 4 1 4 85 4 84 0 85 0 85-4 0-3 1-3 10-3 8 0 9 0 9 3 0 3 1 4 8 4 10 0 14 5 14 18l0 11-252 0z"/>
<glyph glyph-name="calendar-check-o" unicode="&#98;" d="M372 237l-146-147c-2-1-4-2-7-2-2 0-4 1-6 2l-82 83c-2 1-3 4-3 6 0 3 1 5 3 6l13 14c1 1 4 2 6 2 2 0 5-1 7-2l62-63 127 127c2 1 4 2 7 2 2 0 4-1 6-2l13-14c2-1 3-3 3-6 0-2-1-5-3-6z m-335-200l402 0 0 292-402 0z m109 347l0 82c0 3-1 5-2 7-2 2-4 2-7 2l-18 0c-3 0-5 0-7-2-1-2-2-4-2-7l0-82c0-3 1-5 2-7 2-1 4-2 7-2l18 0c3 0 5 1 7 2 1 2 2 4 2 7z m220 0l0 82c0 3-1 5-3 7-2 2-4 2-6 2l-19 0c-2 0-5 0-6-2-2-2-3-4-3-7l0-82c0-3 1-5 3-7 1-1 4-2 6-2l19 0c2 0 4 1 6 2 2 2 3 4 3 7z m109 18l0-365c0-10-3-19-10-26-8-7-16-11-26-11l-402 0c-10 0-19 4-26 11-7 7-11 16-11 26l0 365c0 10 4 19 11 26 7 7 16 11 26 11l36 0 0 27c0 13 5 24 14 33 9 9 19 13 32 13l18 0c13 0 23-4 32-13 9-9 14-20 14-33l0-27 110 0 0 27c0 13 4 24 13 33 9 9 20 13 32 13l19 0c12 0 23-4 32-13 9-9 13-20 13-33l0-27 37 0c10 0 18-4 26-11 7-7 10-16 10-26z"/>
<glyph glyph-name="football" unicode="&#110;" d="M174 279l82 59 82-59-31-96-102 0z m82 233c35 0 68-7 99-20 32-14 59-32 82-55 23-23 41-50 55-82 13-31 20-64 20-99 0-35-7-68-20-99-14-32-32-59-55-82-23-23-50-41-82-55-31-13-64-20-99-20-35 0-68 7-99 20-32 14-59 32-82 55-23 23-41 50-55 82-13 31-20 64-20 99 0 35 7 68 20 99 14 32 32 59 55 82 23 23 50 41 82 55 31 13 64 20 99 20z m177-386c28 39 42 82 42 130l0 1-29-26-68 64 18 93 38-4c-29 40-66 66-111 81l15-36-82-45-82 45 15 36c-45-15-82-41-111-81l39 4 17-93-68-64-29 26 0-1c0-48 14-91 42-130l9 38 93-11 40-86-34-19c23-8 46-11 69-11 23 0 46 3 69 11l-34 19 40 86 93 11z"/>
<glyph glyph-name="truck" unicode="&#112;" d="M14 198l0 205c0 9 4 13 13 13l233 0c3 0 5-1 7-3 1-1 2-3 2-5l0-224c0-3-1-6-3-8-1-3-4-4-7-4l-56 0c-4 0-8 2-11 5-3 3-5 7-5 11 0 15-7 29-22 42-15 14-31 21-49 21-8 0-15-1-22-3-7-2-13-5-18-8-5-2-10-6-14-10-5-5-8-8-11-11-2-3-4-6-7-11-3-4-4-7-4-8-1-1-1-2-2-4-2-6-6-8-12-8-3 0-7 1-10 4-2 0-2 3-2 6z m41-21c0 16 6 31 17 42 12 12 26 18 43 18 16 0 30-6 42-18 11-11 17-26 17-42 0-16-6-30-17-42-12-12-26-17-42-17-17 0-31 5-43 17-11 12-17 26-17 42z m32 0c0-8 3-14 8-19 5-6 12-8 20-8 7 0 14 2 19 8 5 5 8 11 8 19 0 8-3 14-8 19-5 6-12 8-19 8-8 0-15-2-20-8-5-5-8-11-8-19z m10 0c0 4 2 8 6 12 3 4 7 6 12 6 4 0 8-2 11-6 4-4 6-8 6-12 0-4-2-8-6-12-3-4-7-5-11-5-5 0-9 1-12 5-4 4-6 8-6 12z m186 7l0 202c0 3 1 5 3 7 2 1 4 2 7 2l147 0c6 0 10-3 12-9l28-89c12 0 18-7 18-20l0-79c0-3 0-6-2-6-3-3-7-4-10-4-6 0-10 2-12 8-1 2-1 3-2 4 0 1-2 4-4 8-3 4-5 8-8 11-2 3-5 7-10 11-5 4-9 8-14 10-5 3-11 6-18 8-7 2-15 3-22 3-19 0-35-7-49-21-15-13-22-27-22-42 0-4-2-8-5-11-3-3-7-5-11-5l-16 0c-3 0-5 1-7 4-2 2-3 5-3 8z m54-7c0 16 5 31 17 42 12 12 26 18 42 18 17 0 31-6 42-18 12-11 18-26 18-42 0-16-6-30-18-42-11-12-25-17-42-17-16 0-30 5-42 17-12 12-17 26-17 42z m0 197l5-70 9 0c38 0 73-2 105-7l-23 77z m32-197c0-8 2-14 8-19 5-6 11-8 19-8 8 0 14 2 20 8 5 5 8 11 8 19 0 8-3 14-8 19-6 6-12 8-20 8-8 0-14-2-19-8-6-5-8-11-8-19z m10 0c0 4 1 8 5 12 4 4 8 6 12 6 4 0 8-2 12-6 4-4 6-8 6-12 0-4-2-8-6-12-4-4-8-5-12-5-4 0-8 1-12 5-4 4-5 8-5 12z"/>
<glyph glyph-name="scooter" unicode="&#121;" d="M19 198c0 5 2 12 5 20 3 9 8 18 13 26 5 9 12 17 20 23 7 7 15 10 22 10 0 8 1 15 4 22 3 6 7 11 11 14 4 4 8 6 11 8 3 1 5 2 7 2l102 0c16 0 27-2 35-8 7-5 11-12 11-20 0-8-3-15-9-21-6-7-12-10-19-10l-1 0c-15 0-22-8-22-24 0-7 1-13 2-18 1-5 4-10 8-15 3-5 9-9 17-12 8-3 18-4 29-4 14 0 27 3 39 9 11 7 17 14 17 21 0 3-1 7-3 10-2 3-4 7-6 12-2 5-3 11-3 19 0 9 0 17 0 24 1 7 1 14 1 19 0 6 3 10 9 13 7 4 14 6 23 7l-15 34-13 0c-4 0-9 2-12 5-3 4-5 8-5 12 0 5 2 9 5 12 3 4 8 5 12 5l25 0c2 7 5 13 11 18 6 5 12 7 20 7 4 0 7-3 9-9 2-6 4-13 4-21 0-8-2-15-4-21-2-6-5-10-9-10-3 0-4 1-5 1l55-131c2 1 4 1 8 1 18 0 33-6 46-19 13-13 19-28 19-46 0-18-6-33-19-46-13-13-28-20-46-20-18 0-33 7-46 20-13 13-19 28-19 46 0 21 8 38 25 51l-10 23c-16-48-42-73-75-73l-105 0 0-1c0-18-7-33-20-46-13-13-28-20-46-20-18 0-33 7-46 20-13 13-19 28-19 46l0 1-34 0c-1 2-2 3-4 5-1 2-3 6-6 12-3 6-4 12-4 17z m82-35c0-9 3-16 9-22 6-6 14-9 22-9 9 0 16 3 22 9 6 6 9 13 9 22l0 1-62 0z m296 0c0-9 3-16 9-22 6-6 14-9 22-9 9 0 16 3 22 9 6 6 9 13 9 22 0 7-2 13-7 19-5 5-10 9-17 10l9-23c1-2 2-4 2-6 0-5-2-9-5-12-3-4-7-6-12-6-9 0-14 4-16 11l-11 24c-3-5-5-11-5-17z"/>
<glyph glyph-name="screen" unicode="&#44;" d="M0 469l0-298 208 0-37-64 170 0-37 64 208 0 0 298z m469-256l-426 0 0 214 426 0z m-106-128l-214 0c-11 0-21-9-21-21 0-12 10-21 21-21l214 0c11 0 21 9 21 21 0 12-10 21-21 21z"/>
<glyph glyph-name="carparts" unicode="&#105;" d="M386 433c-1-1-2-5-2-8l0-7 49 0-1 8 0 7-22 1c-12 0-23 0-24-1z m12-29c0-7 0-8-13-12-37-10-61-42-60-80 0-14 8-43 13-49 14-17 34-30 49-34l12-3-2-16c-6-72-42-87-104-45-46 31-78 27-97-11l-7-13-4 21c-14 56 0 148 21 148 16 0 26-30 30-88l2-24 11-2c7 0 14-1 16-2 8-4 5 69-5 111-17 74-31 91-76 92l-26 1-11-10c-55-48-61-256-9-334 17-26 76-26 94-1 12 16 33 81 33 101 0 3 0 6 1 6 2 0 14-8 22-15 13-11 25-17 43-20 51-8 79 17 84 76l3 26 8 1c83 14 91 138 11 163-18 5-18 5-18 13 0 7 0 7-10 7-10 0-11 0-11-7z m-229-21c-5-2-11-4-12-5-2-1-2 0-1 2 1 3 6 5 17 5 4 0 3 0-4-2z m274-19c42-25 34-96-13-110-25-8-50-3-64 13-53 55 11 136 77 97z m-281-6c-2-3-22-16-24-16-5 0-1 6 9 12 11 7 18 9 15 4z m-13-44c0-2-7-8-15-14-18-13-19-7-2 8 9 8 19 12 17 6z m-11-58c0-6-23-29-23-23 0 7 6 17 13 23 4 3 10 4 10 0z m-1-62c2-4-1-10-11-22l-9-10 0 8c0 13 17 33 20 24z m92-41c-6-21-17-35-24-31-6 4 16 43 24 43 3 0 3-2 0-12z m-83-20c1-2-2-8-7-14-7-9-10-11-11-8-4 11 12 31 18 22z m12-49c3-5-9-19-12-15-3 3-3 4 1 10 6 8 8 9 11 5z m21-35c-1-3-13-8-15-5-2 2 6 8 12 8 2 0 4-1 3-3z m227 312c-1-5 0-10 4-10 1 0 2 3 2 7 0 8-3 9-6 3z m-20-5c1-5 7-9 9-6 2 2-4 11-7 11-2 0-3-2-2-5z m38 2c0-1-1-3-2-5-1-3 0-4 2-4 4 0 7 5 7 9 0 2-2 3-4 3-2 0-3-1-3-3z m17-10c-10-10-27-22-32-22-9 0-16-8-15-16 1-4 1-7 0-8-5-3 0-5 11-4 13 1 20 7 17 17-1 5 1 8 14 19 14 13 17 17 10 17-2 0-4-1-5-3z m-27-37c0-4-1-6-4-6-5 0-8 4-6 8 2 6 10 4 10-2z m-43 34c0-3 6-7 8-4 2 1-3 8-6 8-1 0-2-2-2-4z m-11-13c-2-2 3-6 8-6 1 0 3 1 3 3 0 4-9 7-11 3z m90 0c-2-2-4-4-3-5 2-2 11 1 11 5 0 4-2 4-8 0z m-94-19c-3-3 1-5 7-5 3 0 5 1 5 3 0 3-9 5-12 2z m95-2c0-2 2-3 5-3 2 0 4 1 4 3 0 2-2 3-4 3-3 0-5-1-5-3z m-88-14c-4-1-5-5-2-7 3-2 10 2 10 5 0 3-1 4-8 2z m84-1c0-3 9-8 10-6 1 1 1 3 0 5-1 4-10 5-10 1z m-359 95c-24-12-45-62-54-128-11-88 16-205 52-222 13-6 50-7 38-1-42 22-65 180-39 277 9 33 31 76 39 76 2 0 3 1 3 2 0 5-27 3-39-4z m13-6c4-2 5-3 2-5-2-2-4-2-8 1-8 6-4 9 6 4z m-21-31c4-6 5-7 2-11-3-4-3-3-9 5-8 13-2 19 7 6z m-15-45c6-7 8-15 5-18-2-2-20 21-18 23 2 5 8 3 13-5z m-7-60c13-19 8-26-6-8-6 8-11 15-11 16 0 6 11 0 17-8z m-4-60c19-23 18-33-1-13-11 12-14 15-11 18 3 4 4 4 12-5z m9-61c6-4 11-9 11-10 0-2 0-5 1-8 1-2-4 1-10 7-7 6-13 11-15 11-1 0-2 2-2 3 0 6 4 5 15-3z m16-48c6-3 12-8 14-10 2-4-1-3-13 3-8 4-15 9-15 11-1 4 1 3 14-4z m23-33c7-2 11-4 9-4-5 0-24 5-27 7-4 3 6 2 18-3z m30 348c-22-13-42-61-50-124-15-108 19-235 63-235 7 0 8 0 3 3-42 23-65 160-44 261 9 48 20 72 36 88l11 9-7 0c-4 0-9-1-12-2z"/>
<glyph glyph-name="maid" unicode="&#119;" d="M232 503c-21-6-35-28-31-50 7-47 75-49 86-3 8 33-23 63-55 53z m-31-99c-10-3-20-11-23-18-2-3-47-138-48-143-1-2-2-4-3-5-18-5-40-31-41-46 0-6 6-1 9 7 9 22 37 43 38 29 0-5 16-7 20-3l2 3 7-7c7-6 15-20 18-28 0-2 1-3 4-3 4 0 4 1-4 17-4 9-7 13-13 19-7 6-8 7-6 10 1 2 8 21 16 44 8 22 15 40 16 41 5 2 4-8-2-29l-3-10 58 0c55 0 58 0 57 2-5 12-9 40-7 43 4 4 6 2 16-17 23-48 21-47 48-47l22 0 0-127c0-141-1-135 8-129l3 2 0 254 3 0c8 0 16 8 16 15 0 10-7 18-15 18l-4 0 0 9c0 6 0 16 0 22l-1 12-5 0-5 1 0-44-8 0c-17-1-19-1-20 1 0 0-5 12-12 26-7 15-16 34-21 44-12 27-22 36-39 38l-8 0-14-27c-13-24-15-27-16-25-1 1-8 14-15 27l-14 25-5 0c-4 0-8-1-9-1z m49-75c2-4-1-8-6-8-3 0-6 5-4 9 2 3 8 3 10-1z m0-23c2-5-3-10-8-8-3 2-3 6-1 9 2 2 7 2 9-1z m90 83c0-12 1-14 2-14 2 0 2 2 2 14 0 12 0 15-2 15-1 0-2-3-2-15z m7 0c0-12 0-14 1-14 2 0 2 2 2 14 0 12 0 15-2 15-1 0-1-3-1-15z m7 0c0-12 0-14 2-14 2 0 2 2 2 14 0 12 0 15-2 15-2 0-2-3-2-15z m7 1c0-21 3-21 3-1 0 13 0 15-2 15-1 0-2-2-1-14z m7-1c0-12 0-14 2-14 1 0 2 2 2 14 0 12-1 15-2 15-2 0-2-3-2-15z m7 0c0-8 1-14 2-14 0 0 1 6 1 14 0 9-1 15-1 15-1 0-2-6-2-15z m7 0c0-12 0-14 2-14 1 0 2 2 2 14 0 12-1 15-2 15-2 0-2-3-2-15z m7 0c0-8 1-14 2-14 0 0 1 6 1 14 0 9-1 15-1 15-1 0-2-6-2-15z m7 0c0-12 0-14 1-14 2 0 2 2 2 14 0 12 0 15-2 15-1 0-1-3-1-15z m7 0c0-12 0-14 2-14 2 0 2 2 2 14 0 12 0 15-2 15-2 0-2-3-2-15z m6 0c0-12 1-14 2-14 2 0 2 2 2 14 0 12 0 15-2 15-1 0-2-3-2-15z m8 0c0-12 0-14 2-14 1 0 2 2 2 14 0 12-1 15-2 15-2 0-2-3-2-15z m6 1c1-21 4-21 4-1 0 13 0 15-2 15-2 0-2-2-2-14z m8-1c0-12 0-14 2-14 1 0 2 2 2 14 0 12-1 15-2 15-2 0-2-3-2-15z m-91-19c0-3 5-14 8-18 6-8 8-9 40-8 36 0 37 1 44 20l2 7-47 0c-30 0-47 0-47-1z m-161-117c-3-9-6-18-6-18-2-3 2-12 9-19 1-1 4 9 8 21 6 16 8 22 9 22 1-1 23-1 48-1l46 0 11-32c5-18 10-33 10-33 0-1-18-2-60-2l-60 0 2-2c3-3 3-7 3-86 1-81 1-83 4-88 6-11 22-12 33-3 6 6 6 9 6 87 0 72 0 76 3 76 3 0 3-5 3-79 1-68 1-73 3-78 7-15 30-17 37-2 3 5 3 8 3 138l0 21 24 0c21 0 24 0 24 2-4 9-24 69-28 80l-4 14-122 0z m-18-46c-1-3-3-8-4-10-2-5-1-6 8-6 11 0 11 5 1 19l-3 3z m-50-1c-4-4-1-11 5-11 3 0 5 2 5 6 0 6-6 9-10 5z m8-3c1-1 1-2 0-3-3-4-9-2-7 3 0 1 2 2 3 2 1 0 3-1 4-2z m6-6c-3-4 2-10 6-7 2 2 2 7 0 8-3 1-4 1-6-1z m6-3c0-1-1-2-2-2-2-1-3 0-3 2 0 2 1 2 3 2 1 0 2-1 2-2z m-29 0c-1 0-2-2-3-4 0-4-1-4-9-4-7 0-9 0-9-2-1-3 0-6 2-6 1 0 2-1 2-3 0-9 12-105 14-106 2-3 71-3 74-1 2 2 3 8 6 33 2 18 4 34 5 37 0 3 0 4-1 4-1 0-1 0-1-1 0-1-1-1-1-1-1 1 0 2 1 3 2 1 3 5 4 18 2 13 3 16 5 18 7 5 2 7-22 7-21 0-23 1-25 3-3 3-6 3-8 0-2-2-4-3-7-3-4 0-5 1-6 3-1 1-2 2-3 2-1 0-3-1-4-2-2-3-6-3-6 0-1 3-5 6-8 5z m5-6c-1-2-4-2-5 0-1 3 2 5 4 3 1-1 2-3 1-3z m-16-6c0-2-3-4-4-2-1 1-1 2 0 3 1 2 4 1 4-1z m96 0c0-1-1-2-3-2-1 0-2 1-2 2 0 1 1 2 2 2 2 0 3-1 3-2z"/>
<glyph glyph-name="smart-tv2" unicode="&#58;" d="M18 403c-5-6-5-8-5-135l0-129 6-7 6-7 63-1c35 0 64-1 66-3 3-3 205-3 208 0 1 2 30 3 65 3 62 1 63 1 69 7l7 7 0 129c0 128 0 130-5 136l-6 5-469 0z m465-136l0-120-450 0 0 119c0 65 1 119 2 120 1 1 102 2 224 2l224 0z"/>
<glyph glyph-name="taxi-new" unicode="&#82;" d="M148 478c-3-1-8-5-10-8l-5-5 0-75-5-3c-24-12-46-54-56-104-3-19-4-20-9-18-4 1-5 3-5 6 0 13-41 20-52 9-6-6-6-16 0-23 5-6 33-8 45-3 7 3 9 3 9 1 0-1-1-1-2-1-3 2-13-11-15-19-1-4-2-33-2-75l0-69 4-4c3-4 6-5 12-6l8-1 0-23c0-30-2-29 28-29 29 0 28-1 28 30l0 23 263 0 0-24c0-31-2-29 27-29 29 0 28-2 28 28l0 25 6 0c19 0 20 0 19 86l-1 70-5 8c-3 4-6 7-8 8-1 0-3 1-3 2 0 3 5 3 7 0 3-2 8-2 23-3 23 0 28 3 28 17 0 12-5 15-28 15-22 0-28-3-28-13 0-5-3-7-8-7-3 0-4 4-8 22-11 52-30 89-53 101l-6 4 0 36c0 58 11 53-120 53-80 0-102 0-106-2z m210-14c4-3 4-5 4-37l0-34-217 0 0 34c0 36 0 37 9 40 8 3 201 0 204-3z m-2-111c13-6 25-24 33-50 5-16 11-46 10-47-1-2-291-2-292-1-1 1 1 10 3 22 9 40 23 66 41 76 8 4 196 4 205 0z m-245-182c36-5 45-12 42-31-3-13-11-16-42-16-32 0-40 3-41 20-2 30 3 33 41 27z m312 0c12-11 9-38-5-45-7-4-52-4-61 0-15 8-14 32 2 39 6 3 42 9 53 10 5 0 8-1 11-4z m-135-63l0-8-71 0 0 17 71 0z m-134 345c0-3 1-3 11-3l11 0 0-48 10 0 0 23 1 24 11 0c9 1 10 1 10 4 0 3-1 3-27 3-26 0-27 0-27-3z m74 1c-2-2-25-50-25-52 0-5 11 1 14 8l4 8 12 0 13 1 4-9c5-9 16-14 13-4-16 39-29 57-35 48z m11-18c5-12 5-12-6-12-5 0-9 0-9 1 0 2 8 19 9 19 1 0 4-4 6-8z m31 19c0 0 4-7 10-13l10-13-11-14-11-13 6 0c5 0 6 1 13 10 9 12 8 12 18 0 7-8 9-10 14-10 7 0 7-1-5 13-6 7-10 13-10 14 0 1 4 7 10 14 12 13 12 14 5 13-4 0-7-3-13-10-10-12-9-12-18 0-8 9-18 15-18 9z m66 0c0-1 0-3 0-5 0-1 0-12 0-25l0-23 10 0 0 54-5 0c-2 0-5 0-5-1z"/>
<glyph glyph-name="iphone-streamline" unicode="&#56;" d="M373 512l-234 0c-30 0-54-24-54-53l0-406c0-29 24-53 54-53l234 0c30 0 54 24 54 53l0 406c0 29-24 53-54 53z m-266-107l298 0 0-298-298 0z m32 86l234 0c18 0 32-15 32-32l0-32-298 0 0 32c0 17 14 32 32 32z m234-470l-234 0c-18 0-32 15-32 32l0 32 298 0 0-32c0-17-14-32-32-32z m-96 32c0-11-9-21-21-21-12 0-21 10-21 21 0 12 9 22 21 22 12 0 21-10 21-22z m-74 395l106 0c6 0 11 5 11 11 0 6-5 10-11 10l-106 0c-6 0-11-4-11-10 0-6 5-11 11-11z"/>
<glyph glyph-name="mobile" unicode="&#91;" d="M353 507c15 0 27-5 37-15 10-10 14-22 14-36 0 0 0-400 0-400 0-13-4-25-14-36-10-10-22-15-37-15 0 0-194 0-194 0-14 0-26 5-36 15-10 11-15 23-15 36 0 0 0 400 0 400 0 14 5 26 15 36 10 10 22 15 36 15 0 0 194 0 194 0m-97-481c10 0 19 2 26 7 6 5 10 11 10 18 0 8-4 14-10 19-7 4-16 7-26 7-10 0-18-3-25-8-7-5-11-11-11-18 0-7 4-13 11-18 7-5 15-7 25-7m108 76c0 0 0 338 0 338 0 0-216 0-216 0 0 0 0-338 0-338 0 0 216 0 216 0"/>
<glyph glyph-name="ipad" unicode="&#57344;" d="M405 491l-298 0c-24 0-43-20-43-43l0-384c0-23 19-43 43-43l298 0c24 0 43 20 43 43l0 384c0 23-19 43-43 43z m-128-448l-42 0 0 42 42 0z m128 64l-298 0 0 341 298 0z"/>
<glyph glyph-name="laptop" unicode="&#57352;" d="M101 146c-13 0-24 5-33 14-9 9-13 19-13 32l0 201c0 13 4 23 13 32 9 9 20 14 33 14l310 0c13 0 24-5 33-14 9-9 13-19 13-32l0-201c0-13-4-23-13-32-9-9-20-14-33-14z m-10 247l0-201c0-2 1-5 3-6 2-2 4-3 7-3l310 0c3 0 5 1 7 3 2 1 3 4 3 6l0 201c0 3-1 5-3 7-2 1-4 2-7 2l-310 0c-3 0-5-1-7-2-2-2-3-4-3-7z m394-265l45 0 0-27c0-8-4-15-13-20-9-5-20-8-32-8l-458 0c-12 0-23 3-32 8-9 5-13 12-13 20l0 27z m-206-27c3 0 4 1 4 4 0 3-1 5-4 5l-46 0c-3 0-4-2-4-5 0-3 1-4 4-4z"/>
<glyph glyph-name="delete" unicode="&#57354;" d="M201 302l0-165c0-3-1-5-2-6-2-2-4-3-7-3l-18 0c-3 0-5 1-7 3-2 1-2 3-2 6l0 165c0 2 0 5 2 6 2 2 4 3 7 3l18 0c3 0 5-1 7-3 1-1 2-4 2-6z m73 0l0-165c0-3-1-5-2-6-2-2-4-3-7-3l-18 0c-3 0-5 1-7 3-1 1-2 3-2 6l0 165c0 2 1 5 2 6 2 2 4 3 7 3l18 0c3 0 5-1 7-3 1-1 2-4 2-6z m73 0l0-165c0-3 0-5-2-6-2-2-4-3-7-3l-18 0c-3 0-5 1-7 3-1 1-2 3-2 6l0 165c0 2 1 5 2 6 2 2 4 3 7 3l18 0c3 0 5-1 7-3 2-1 2-4 2-6z m37-207l0 271-256 0 0-271c0-4 1-8 2-12 1-3 3-6 4-7 2-2 3-3 3-3l238 0c0 0 1 1 3 3 1 1 3 4 4 7 1 4 2 8 2 12z m-192 307l128 0-14 34c-1 1-3 2-5 3l-90 0c-2-1-4-2-5-3z m265-9l0-18c0-3-1-5-2-7-2-1-4-2-7-2l-27 0 0-271c0-16-5-30-14-41-9-12-20-17-32-17l-238 0c-12 0-23 5-32 16-9 11-14 25-14 41l0 272-27 0c-3 0-5 1-7 2-1 2-2 4-2 7l0 18c0 3 1 5 2 7 2 1 4 2 7 2l88 0 20 48c3 7 8 13 16 18 7 5 15 7 22 7l92 0c7 0 15-2 22-7 8-5 13-11 16-18l20-48 88 0c3 0 5-1 7-2 1-2 2-4 2-7z"/>
<glyph glyph-name="shopping-cart" unicode="&#107;" d="M201 73c0-10-3-18-11-26-7-7-16-10-25-10-10 0-19 3-26 10-7 8-11 16-11 26 0 10 4 19 11 26 7 7 16 11 26 11 9 0 18-4 25-11 8-7 11-16 11-26z m256 0c0-10-3-18-11-26-7-7-16-10-25-10-10 0-19 3-26 10-7 8-11 16-11 26 0 10 4 19 11 26 7 7 16 11 26 11 9 0 18-4 25-11 8-7 11-16 11-26z m37 311l0-146c0-5-2-9-5-12-3-4-7-6-12-7l-298-34c3-12 4-19 4-20 0-3-2-10-7-19l263 0c5 0 9-2 13-5 3-4 5-8 5-13 0-5-2-9-5-13-4-3-8-5-13-5l-293 0c-5 0-9 2-13 5-3 4-5 8-5 13 0 2 1 5 2 9 2 4 3 7 5 10 1 3 3 7 6 12 3 4 4 7 4 8l-50 235-58 0c-5 0-10 2-13 6-4 3-6 8-6 13 0 5 2 9 6 12 3 4 8 6 13 6l73 0c3 0 5-1 8-2 2-1 4-3 5-4 2-2 3-4 4-7 1-3 2-6 2-8 1-2 1-5 2-8 1-4 1-6 1-8l343 0c5 0 10-2 13-5 4-4 6-8 6-13z"/>
<glyph glyph-name="health-beauty" unicode="&#111;" d="M227 492c-51-11-88-63-85-120 7-128 102-194 172-119 39 40 56 122 37 170-21 52-72 80-124 69z m-28-74c38-13 71-13 98 0 7 3 13 6 13 5 8-10 21-44 21-56l0-8 7 8c8 9 8 9 6-12-18-146-157-157-186-14-3 19-3 19 5 15 3-2 6-3 6-3 1 0 1 12 1 26 0 28 1 34 7 41 5 4 4 5 22-2z m142-184c-1-1-1-2-1-4 0-2-1-5-3-8-25-50-156-44-169 7-4 20-30-21-37-59-3-21-3-21 6-24 20-5 38-34 40-65l1-11-4-3c-4-3-5-5-5-9 0-9-13-12-16-3-1 6 2 10 8 10 13 0 15 9 9 32-14 57-68 61-86 6-9-24-7-38 6-38 5 0 9-5 8-9-3-10-17-7-16 3 1 4 0 5-3 8-16 11 8 67 32 78 7 3 8 4 8 9 0 18 10 50 20 65 8 13 8 13-9 6-97-39-128-177-46-203 22-7 25-7 157-8 152-1 170 0 195 13 61 31 37 147-39 189-9 5-32 14-35 14-1 0 2-5 7-12 8-12 15-27 18-40 2-6 3-8 5-8 12 0 26-17 26-32 0-34-48-44-61-12-6 16 3 38 18 42 4 1 4 2 0 14-8 23-30 56-34 52z m-19-143l1-11 20 0 0-18-21 0 0-22-19 0 0 22-20 0 0 18 20 0 0 10c0 12 0 12 10 12l9-1z"/>
<glyph glyph-name="teaching" unicode="&#47;" d="M99 429c-34-16-33-67 1-89 39-25 84 40 53 76-14 16-36 21-54 13z m254-25c-2-3-3-9-3-16l0-12-58 0c-79 0-80-1-82-43 0-20-1-23-4-22-10 4-51 15-60 16-6 1-13 2-16 3-10 1-10-4-3-56l6-47-7-11c-8-14-8-14-15 0l-7 12 6 46c7 54 7 57-7 55-32-4-63-13-69-20-6-6-35-137-33-146 3-7 13-14 20-12 12 3 12 5 27 70 8 35 15 63 16 64 5 2 5-111 1-159-2-20-3-38-3-39 0-2 6-3 22-3l21 0 2 23c2 35 2 35 12 35l9 0 1-21c1-12 2-25 2-29l2-8 41 0 0 8c0 4-1 23-3 41-4 44-4 151 0 151 1 0 10-2 20-6l19-6 0-53c1-71 1-71 51-73l30-1-7-28c-10-35-10-33 3-33l10 0 8 31 8 30 19 1 18 1 0-63 22 0 0 62 37 0 8-30 8-31 12 0c10-1 11 0 10 2-1 4-15 56-15 58 0 1 12 1 28 1 54 0 52-4 52 115 0 125 8 114-79 115l-61 1 0 12c0 18-11 26-19 15z m140-46c5-5 7-178 3-188-4-10-8-10-139-9-117 0-123 1-127 4-4 4-7 101-2 101 1 0 10-3 21-7 27-10 45-7 45 6 0 2 22 13 54 27 57 26 58 27 55 30-2 2-18-5-56-22l-54-25-5 6c-4 4-13 8-33 14l-29 10 0 24c0 37-16 34 137 33 119-1 127-1 130-4z"/>
<glyph glyph-name="book" unicode="&#57;" d="M487 375c7-10 9-23 5-36l-79-259c-3-12-11-23-22-31-11-8-22-12-35-12l-263 0c-15 0-29 5-43 15-13 10-23 23-28 37-5 13-5 25-1 37 0 0 0 3 1 7 1 5 1 8 1 11 0 2 0 4-1 6 0 3-1 5-1 6 1 2 2 4 3 6 1 2 2 4 4 6 2 3 4 5 5 7 5 7 9 16 13 26 4 10 7 19 9 26 0 2 0 5-1 9 0 4 0 6 0 8 1 2 2 5 5 8 3 3 4 5 5 7 4 6 8 15 12 26 4 11 6 19 7 26 0 1 0 4-1 9 0 4 0 7 0 8 1 2 3 5 7 8 3 4 5 6 6 7 3 5 8 13 12 24 4 11 7 20 8 28 0 1 0 4-1 7-1 3-1 6-1 7 1 2 2 4 3 6 1 1 3 4 5 6 2 3 4 5 5 6 2 2 3 5 5 9 1 3 3 7 4 10 1 3 3 6 5 10 1 4 3 7 5 9 2 3 5 5 8 7 3 2 6 3 10 3 4 0 8 0 14-1l-1-1c8 2 12 2 15 2l217 0c14 0 25-5 33-16 7-10 9-23 5-37l-78-259c-7-22-14-37-21-43-6-7-19-10-36-10l-249 0c-5 0-8-2-11-5-2-3-2-7 0-12 5-13 18-20 41-20l264 0c6 0 11 2 16 5 5 3 8 6 10 11l86 282c1 5 2 10 1 17 7-3 13-7 17-13z m-304 0c-1-3-1-5 0-7 1-1 3-2 6-2l174 0c2 0 4 1 7 2 2 2 4 4 5 7l6 18c0 3 0 5-1 7-1 1-3 2-6 2l-173 0c-3 0-5-1-8-2-2-2-4-4-4-7z m-24-73c-1-3-1-5 0-7 2-2 3-2 6-2l174 0c2 0 5 0 7 2 3 2 4 4 5 7l6 18c1 2 0 5-1 6-1 2-3 3-5 3l-174 0c-3 0-5-1-7-3-3-1-4-4-5-6z"/>
<glyph glyph-name="scooty" unicode="&#64;" d="M323 410c-3-5-4-8-3-15l0-8 11 0c10 0 10 0 8-3-1-2-3-3-3-3-5 0-21-14-20-18 1-3 0-4-1-3-4 1-3-6 0-8 2-1 5-5 6-9 5-17 13-31 18-30 5 1 5 1 1-1-5-2-5-2 2-13 14-21 14-30 2-84-9-46-3-43-64-35l-15 2-2 13c-3 21-4 29-2 30 3 3 9 15 7 18-1 2 0 3 4 4 8 4 9 9 3 24-8 19-14 23-34 23-21 0-50 3-67 8-19 4-54 10-75 12-12 1-15 1-18 5-4 4-10 5-12 2 0 0 0-2 1-2 0 0 3-3 6-7 3-5 6-6 16-9 16-4 26-9 31-14 7-6 5-7-12-3-35 9-40 10-45 6-5-4-7-4-5-1 0 1 0 1-1 1 0-1-1-2-1-3 0-1-1-2-1-3-2-2-1-2 3-1 3 1 6 2 8 1 2 0 7 0 11-1 11 0 3-5-8-5-11 0-29-4-32-7-1-1-1-2 2 0 2 0 6 1 9 1 4 1 8 1 9 2 7 2 8 2 9 1 1 0-1-2-3-4-2-2 1-1 7 2 11 6 32 8 42 3 6-2 10-2 9 1-2 2 1 1 13-3 39-17 79-45 97-67l5-7-13 2c-6 1-12 2-13 3-4 5-51 3-72-4-24-8-22-8-50 0-22 7-23 7-27 4-3-1-4-3-3-3 1-1-1-4-5-9-23-25-22-65 3-87 25-22 66-20 88 5 10 11 16 13 50 16 28 2 33 3 37 10 3 6 13 7 15 2 1-3 19-3 19-1 0 4 10 2 11-1 2-7 35-8 36-2 1 3 0 3-5 3-9 0-48 6-51 7-1 1-4 1-7 1-2 0-4 0-5 1 0 1-6 2-13 2-6 0-11 1-11 2 1 1-1 1-3 0-2-1-3-1-3 1 1 1 0 2-1 2-2 1-2 1-2-1 2-2-7 3-25 16-7 5-12 9-12 10 0 1-1 1-2 1-1 0-2 1-2 2 0 3 1 3 4 2 2-1 12-3 21-6 12-3 20-6 25-9 8-6 21-8 93-12l31-3 16 31c8 17 17 36 19 42 2 5 5 10 5 10 1-1 1 1 2 3 3 30 2 31-19 67-11 18-11 21-1 21 4 0 6 0 6 1-1 1 0 2 2 3 1 0 0 0-4 0-7-1-9 3-3 5 2 1 5 2 7 3 3 1 5 2 7 2 1-1 2 0 1 2 0 1-1 4-1 5 0 2-15 11-18 11 0 0-1-1-1-3-1-2-1-2 2-1 2 1 2 0 0-1-3-3-2-7 2-8 3-1 1-2-5-1-12 1-12 1-9 7 3 5 1 7-7 7-9 0-16 11-11 15 2 2 4 2 7 1 6-2 6 3 1 8-1 1-2 2-1 2 0 0 0 2-2 4-1 2-2 6-2 9 0 3-1 4-2 2-4-3-7-2-6 2 0 2-1 5-2 7l-3 4z m-152-117c8-3 19-7 26-10 6-4 13-6 14-6 1 0 2-1 2-2 0-1 3-2 5-2 6-2 13-7 11-9-1 0-9 1-17 4-8 3-20 8-25 10-6 2-13 5-15 6-3 2-8 4-13 5-8 2-14 6-14 8 0 2 11 0 26-4z m88-9c5-5 0-14-8-14-2 0-4-1-5-2-3-3-12-2-16 2-1 2-3 3-4 2 0 0-1 0-1 2 0 2 1 3 3 2 1 0 2 0 2 2 0 6 23 12 29 6z m-171-116c24-8 33-12 38-16 3-3 6-5 7-5 5 0-1-3-9-5-8-2-11-2-19 1-15 5-37 15-35 17 0 1 0 1-1 0-5-3-16 8-16 15 0 4-1 4 35-7z m-15-15c6-3 6-6 0-11-4-3-6-1-7 7-2 7 0 8 7 4z m9-9c0-1-2-4-5-7-6-7-7-4-1 3 5 6 6 6 6 4z m148-2c0-3-4-5-8-4-4 1-5 3-1 5 6 1 9 1 9-1z m-134-12c9-10 10-13 1-12-8 0-12 3-11 7 0 2 0 3-1 3-1 0-1 0-1-1 0-3-5-2-7 1-1 2 6 11 9 11 0 0 5-4 10-9z m32-2c-3-5-10-7-14-4-6 5-4 7 6 7 8 0 9 0 8-3z m265 178c0-2 7-10 16-17 12-9 18-17 21-26 1-3 3-7 4-7 4-2 1 6-6 17-7 11-36 38-35 33z m14-22c-4-2 3-16 7-16 3 0 3 1 1 2-2 2-2 2-1 3 2 0 2 2 1 4-1 1-1 3-1 4 0 0 0 1 0 0-1 0-2 0-3 2-1 1-3 2-4 1z m0-23c-1-1-2-4-2-6 1-1 1-4 1-5 0-3 9-11 11-10 1 1 1 2-1 4-3 2-3 2 1 5l5 3-5 6c-6 6-6 6-10 3z m-371-22c1-3 1-4 2-4 0 1 2-2 4-6 2-7 12-14 15-12 1 0 0 1-2 2-2 1-4 4-4 6 0 2 0 2-1 1-1-1-4 1-8 7-4 8-6 9-6 6z m385 1c-10-10-33-44-42-62-14-29-3-62 26-79 13-7 49-7 62 0 28 16 39 52 26 79-8 16-15 18-71 21-11 1-21 2-21 2-1 1 1 1 5 1 7-1 12 4 6 6-4 1-3 4 3 16l5 11 10-1c6-1 10-1 10 0 0 1 0 2-1 2-1 0-5 1-9 3-6 3-7 3-9 1z m7-52c2 0 4-1 4-2 0-1 1-1 3 1 4 3 9 2 9-2-1-9-3-11-9-11l-5 1 5-11c3-5 5-10 5-10-1 0-8 13-12 23-2 3-2 6-1 5 1 0 1 0 0 2 0 1-1 2-2 1-1 0-2 0-2 0 0 1 0 2 0 3-1 2-1 2 0 1 0 0 2-1 5-1z m22-9c-2-7-2-9-4-8-1 2 2 15 3 15 1 0 1-3 1-7z m12-2c12-12 12-23 1-23-8 0-11 5-11 19 0 12 2 13 10 4z m-47-4c4-2 6-5 4-5-1 0-13 7-13 7 0 2 4 1 9-2z m-3-6c4-3 4-4 3-11-2-9-2-10-11-7-7 2-7 2-6 8 3 15 6 17 14 10z m59-18c-4-3-15-4-15-2 0 2 4 3 12 3 4 0 5 0 3-1z m-3-13c-8-15-18-19-22-10-2 6 1 13 6 12 1 0 3 1 4 2 9 8 17 5 12-4z m-57 0c-3-2-6-4-6-3-2 1 5 7 8 7 2 0 1-1-2-4z m14-1c6-3 14-15 12-17-3-4-20 2-26 8-3 4-3 4 2 8 7 5 5 5 12 1z m18-9c3-7 3-8 1-8-1 0-7 11-7 13 0 3 3 0 6-5z m-52 111c0-1 8-5 15-7 3-1 3-1 3 2-1 1-2 2-3 1-1 0-4 1-7 2-7 3-8 3-8 2z m-333-5c12-3 22-4 20-2-1 1-4 1-7 2-3 0-9 0-15 1l-9 1z m35-3c0-1 1-2 3-3 3 0 5-2 5-3 0-1 0-1 2 0 1 2 2 2 4 2 1-1 4 0 6 1 4 1 4 1-1 0-3 0-6 0-7 1-1 1-3 2-4 1-1 0-3 0-4 1-2 1-3 1-4 0z m-53-11c-2-1-2-3-2-6 0-2-5-11-12-20-17-25-13-24 17 3 18 15 20 19 14 19-2 0-6 1-9 3-5 2-7 3-8 1z m-5-23c-3-6-11-16-12-15-1 1 13 22 14 22 0 0-1-3-2-7z m27 22c-1-1 11-6 13-4 0 0 0 1-1 1-2 0-2 0-1 1 0 1-1 2-2 1-2-1-4 0-5 1-2 1-3 1-4 0z m76-3c-1-1-3-2-4 0-1 1-2 0-5-2-2-2-4-3-6-2-1 1-2 0-1-1 1-1 0-2-1-2-1 0-2 1-2 2-1 1-2 0-4-1-3-3-12-2-23 3-5 2-10 2-12 2-3-1 1-3 16-7l19-6 19 7c21 8 22 9 15 8-3 0-6 0-7 1-1 0-3 0-4-2z m19 2c1 0 7-1 15-1 8 0 13 0 10 0-5 2-26 3-25 1z m204-69c-6-5-14-6-15-2-1 3-1 3-1 0 0-3-2-3-14-3-12 0-14-1-11-2 7-4 42 1 46 7 2 3-1 2-5 0z"/>
<glyph glyph-name="house-1" unicode="&#97;" d="M512 208l-96 96 0 144-64 0 0-80-96 96-256-256 0-16 64 0 0-160 160 0 0 96 64 0 0-96 160 0 0 160 64 0z"/>
<glyph glyph-name="apartment-1" unicode="&#99;" d="M0 0l256 0 0 512-256 0z m160 448l64 0 0-64-64 0z m0-128l64 0 0-64-64 0z m0-128l64 0 0-64-64 0z m-128 256l64 0 0-64-64 0z m0-128l64 0 0-64-64 0z m0-128l64 0 0-64-64 0z m256 160l224 0 0-32-224 0z m0-352l64 0 0 128 96 0 0-128 64 0 0 288-224 0z"/>
<glyph glyph-name="house-2" unicode="&#100;" d="M512 217l-256 198-256-198 0 81 256 199 256-199z m-64 7l0-192-128 0 0 128-128 0 0-128-128 0 0 192 192 144z"/>
<glyph glyph-name="music" unicode="&#102;" d="M144 224l-32 0 0-224 32 0c9 0 16 7 16 16l0 192c0 9-7 16-16 16z m224 0c-9 0-16-7-16-16l0-192c0-9 7-16 16-16l32 0 0 224z m144 32c0 141-115 256-256 256-141 0-256-115-256-256 0-31 5-60 15-87-9-17-15-36-15-57 0-56 42-103 96-111l0 222c-16-2-31-8-44-16-3 13-4 27-4 41 0 115 93 208 208 208 115 0 208-93 208-208 0-14-1-28-4-41-13 8-28 14-44 16l0-222c54 8 96 55 96 111 0 21-6 40-15 57 10 27 15 56 15 87z"/>
<glyph glyph-name="large" unicode="&#103;" d="M512 512l-208 0 80-80-96-96 48-48 96 96 80-80z m0-512l0 208-80-80-96 96-48-48 96-96-80-80z m-512 0l208 0-80 80 96 96-48 48-96-96-80 80z m0 512l0-208 80 80 96-96 48 48-96 96 80 80z"/>
<glyph glyph-name="setting" unicode="&#104;" d="M182 151l21 29-23 23-29-21c-5 3-11 5-17 7l-6 35-32 0-6-35c-6-2-12-4-17-7l-29 21-23-23 21-29c-3-5-5-11-7-17l-35-6 0-32 35-6c2-6 4-12 7-17l-21-29 23-23 29 21c5-3 11-5 17-7l6-35 32 0 6 35c6 2 12 4 17 7l29-21 23 23-21 29c3 5 5 11 7 17l35 6 0 32-35 6c-2 6-4 12-7 17z m-70-71c-18 0-32 14-32 32 0 18 14 32 32 32 18 0 32-14 32-32 0-18-14-32-32-32z m400 240l0 32-34 6c0 4-1 8-2 12l29 19-13 29-33-7c-2 3-4 7-7 10l20 28-23 23-28-20c-3 3-7 5-10 7l7 33-29 13-19-29c-4 1-8 2-12 2l-6 34-32 0-6-34c-4 0-8-1-12-2l-19 29-29-13 7-33c-3-2-7-4-10-7l-28 20-23-23 20-28c-3-3-5-7-7-10l-33 7-13-29 29-19c-1-4-2-8-2-12l-34-6 0-32 34-6c0-4 1-8 2-12l-29-19 13-29 33 7c2-3 4-7 7-10l-20-28 23-23 28 20c3-3 7-5 10-7l-7-33 29-13 19 29c4-1 8-2 12-2l6-34 32 0 6 34c4 0 8 1 12 2l19-29 29 13-7 33c3 2 7 4 10 7l28-20 23 23-20 28c3 3 5 7 7 10l33-7 13 29-29 19c1 4 2 8 2 12z m-176-54c-38 0-70 32-70 70 0 38 32 70 70 70 38 0 70-32 70-70 0-38-32-70-70-70z"/>
<glyph glyph-name="bike" unicode="&#113;" d="M509 221c2-15 0-29-5-43-5-15-12-27-22-37-9-10-21-17-35-23-13-6-28-8-43-7-24 2-44 11-62 28-17 17-27 37-30 60-1 17 1 32 6 47 6 15 15 27 27 38l-16 23c-14-11-25-26-34-43-8-16-12-34-12-54 0-4-1-7-4-10-3-3-6-4-10-4l-72 0c-3-24-14-45-33-61-18-16-40-24-65-24-27 0-50 10-70 29-19 19-29 43-29 70 0 27 10 51 29 70 20 19 43 29 70 29 11 0 23-2 34-6l5 10c-18 16-40 24-67 24l-14 0c-4 0-7 2-10 5-3 2-5 6-5 10 0 3 2 7 5 10 3 2 6 4 10 4l28 0c11 0 22-1 32-3 10-2 19-5 26-9 7-3 12-6 16-8 3-3 7-5 11-9l139 0-19 29-49 0c-5 0-8 1-11 5-3 3-4 7-3 11 0 4 2 7 5 9 3 2 6 3 9 3l56 0c5 0 9-2 12-6l16-23 25 25c3 3 6 4 10 4l22 0c4 0 8-1 10-4 3-3 5-6 5-10l0-28c0-4-2-8-5-10-2-3-6-5-10-5l-39 0 25-38c20 10 40 12 61 8 21-3 39-13 54-29 15-16 24-35 26-57z m-410-82c17 0 32 5 45 16 13 11 21 24 25 41l-70 0c-5 0-9 2-12 7-3 4-3 9 0 14l32 61c-7 2-13 3-20 3-19 0-36-7-50-21-14-14-21-31-21-50 0-20 7-36 21-50 14-14 31-21 50-21z m312 0c19 0 36 7 50 21 14 14 21 30 21 50 0 19-7 36-21 50-14 14-31 21-50 21-9 0-18-2-27-6l38-57c3-3 3-7 3-11-1-4-3-7-6-9-2-1-5-2-8-2-5 0-9 2-12 6l-38 58c-14-14-21-31-21-50 0-20 7-36 21-50 14-14 30-21 50-21z"/>
<glyph glyph-name="cycle" unicode="&#114;" d="M169 196l-69 0c-6 0-11 2-13 7-3 6-2 10 1 15l42 56c-10 5-20 7-30 7-20 0-37-7-51-21-14-14-21-31-21-50 0-20 7-36 21-50 14-14 31-21 51-21 17 0 32 5 45 16 13 11 21 24 24 41z m-41 28l41 0c-2 13-8 24-16 33z m107 0l64 85-107 0-22-29c15-15 25-34 28-56z m248-14c0 19-7 36-20 50-14 14-31 21-51 21-9 0-18-2-27-5l39-58c2-4 3-7 2-11 0-4-2-7-6-9-2-2-5-2-8-2-5 0-9 2-11 6l-39 58c-14-14-21-31-21-50 0-20 7-36 21-50 14-14 31-21 50-21 20 0 37 7 51 21 13 14 20 30 20 50z m29 0c0-28-10-51-29-71-20-19-43-29-71-29-27 0-51 10-70 29-19 20-29 43-29 71 0 14 3 28 9 41 5 12 14 23 24 33l-15 22-78-105c-3-4-6-5-11-5l-44 0c-3-25-15-45-33-61-19-17-41-25-65-25-28 0-51 10-71 29-19 20-29 43-29 71 0 27 10 51 29 70 20 20 43 29 71 29 16 0 32-4 47-12l31 41-50 0c-4 0-7 1-10 4-3 3-4 6-4 10 0 4 1 7 4 10 3 3 6 4 10 4l85 0 0-28 97 0-19 28-49 0c-4 0-7 2-10 4-3 3-5 7-5 10 0 4 2 8 5 10 3 3 6 5 10 5l57 0c4 0 8-2 11-7l60-88c13 6 27 9 42 9 28 0 51-9 71-29 19-19 29-43 29-70z"/>
<glyph glyph-name="taxi" unicode="&#115;" d="M456 252c16 0 29-5 40-16 11-11 16-25 16-40l0-96c0-2-1-4-2-6-2-1-4-2-6-2l-24 0 0-16c0-13-5-25-14-34-9-9-21-14-34-14-13 0-25 5-34 14-9 9-14 21-14 34l0 16-256 0 0-16c0-13-5-25-14-34-9-9-21-14-34-14-13 0-25 5-34 14-9 9-14 21-14 34l0 16-24 0c-2 0-4 1-6 2-1 2-2 4-2 6l0 96c0 15 5 29 16 40 11 11 25 16 40 16l7 0 26 105c4 15 13 29 26 39 14 11 29 16 45 16l32 0 0 56c0 2 1 4 2 6 2 1 4 2 6 2l112 0c2 0 4-1 6-2 1-2 2-4 2-6l0-56 32 0c16 0 31-5 45-16 13-10 22-24 26-39l26-105z m-376-120c11 0 20 4 28 12 8 8 12 17 12 28 0 11-4 20-12 28-8 8-17 12-28 12-11 0-20-4-28-12-8-8-12-17-12-28 0-11 4-20 12-28 8-8 17-12 28-12z m49 120l254 0-22 89c0 2-2 3-4 5-2 1-3 2-5 2l-192 0c-1 0-3-1-5-2-2-2-3-3-4-5z m303-120c11 0 21 4 28 12 8 8 12 17 12 28 0 11-4 20-12 28-7 8-17 12-28 12-11 0-20-4-28-12-8-8-12-17-12-28 0-11 4-20 12-28 8-8 17-12 28-12z"/>
<glyph glyph-name="car" unicode="&#116;" d="M120 204c0 11-4 20-12 28-8 8-17 12-28 12-11 0-20-4-28-12-8-8-12-17-12-28 0-11 4-20 12-28 8-8 17-12 28-12 11 0 20 4 28 12 8 8 12 17 12 28z m9 80l254 0-22 89c0 2-2 3-4 5-2 1-3 2-5 2l-192 0c-1 0-3-1-5-2-2-2-3-3-4-5z m343-80c0 11-4 20-12 28-7 8-17 12-28 12-11 0-20-4-28-12-8-8-12-17-12-28 0-11 4-20 12-28 8-8 17-12 28-12 11 0 21 4 28 12 8 8 12 17 12 28z m40 24l0-96c0-2-1-4-2-6-2-1-4-2-6-2l-24 0 0-32c0-13-5-25-14-34-9-9-21-14-34-14-13 0-25 5-34 14-9 9-14 21-14 34l0 32-256 0 0-32c0-13-5-25-14-34-9-9-21-14-34-14-13 0-25 5-34 14-9 9-14 21-14 34l0 32-24 0c-2 0-4 1-6 2-1 2-2 4-2 6l0 96c0 15 5 29 16 40 11 11 25 16 40 16l7 0 26 105c4 15 13 29 26 39 14 11 29 16 45 16l192 0c16 0 31-5 45-16 13-10 22-24 26-39l26-105 7 0c16 0 29-5 40-16 11-11 16-25 16-40z"/>
<glyph glyph-name="graduation-cap" unicode="&#117;" d="M394 266l4-70c1-11-5-20-18-29-13-9-30-16-52-21-22-5-46-7-72-7-26 0-50 2-72 7-22 5-39 12-52 21-13 9-19 18-18 29l4 70 127-40c4-1 7-2 11-2 4 0 7 1 11 2z m118 72c0-4-2-6-5-7l-249-78c0 0-1-1-2-1-1 0-2 1-2 1l-145 45c-7-5-12-13-16-24-4-12-7-25-7-40 9-5 14-13 14-24 0-10-5-18-13-24l13-96c0-2-1-4-2-6-2-1-3-2-6-2l-42 0c-2 0-4 1-6 2-1 2-2 4-1 6l13 96c-9 6-13 14-13 24 0 11 4 19 14 24 2 31 9 56 22 74l-74 23c-3 1-5 3-5 7 0 3 2 5 5 7l249 78c0 0 1 0 2 0 1 0 2 0 2 0l249-78c3-2 5-4 5-7z"/>
<glyph glyph-name="game" unicode="&#118;" d="M222 201l0 34c0 2-1 4-3 6-1 1-3 2-6 2l-51 0 0 51c0 3-1 5-2 7-2 1-4 2-6 2l-35 0c-2 0-4-1-6-2-1-2-2-4-2-7l0-51-51 0c-3 0-5-1-6-2-2-2-3-4-3-6l0-34c0-3 1-5 3-7 1-1 3-2 6-2l51 0 0-51c0-3 1-5 2-6 2-2 4-3 6-3l35 0c2 0 4 1 6 3 1 1 2 3 2 6l0 51 51 0c3 0 5 1 6 2 2 2 3 4 3 7z m154-18c0 10-4 18-10 25-7 6-15 10-25 10-9 0-17-4-24-10-6-7-10-15-10-25 0-9 4-17 10-24 7-6 15-10 24-10 10 0 18 4 25 10 6 7 10 15 10 24z m68 69c0 9-4 17-10 24-7 7-15 10-24 10-10 0-18-3-24-10-7-7-10-15-10-24 0-10 3-18 10-24 6-7 14-10 24-10 9 0 17 3 24 10 6 6 10 14 10 24z m68-34c0-38-13-70-40-97-27-27-59-40-96-40-35 0-65 11-91 34l-58 0c-26-23-56-34-90-34-38 0-70 13-97 40-27 27-40 59-40 97 0 37 13 69 40 96 27 27 59 40 97 40l239 0c37 0 69-13 96-40 27-27 40-59 40-96z"/>
<glyph glyph-name="spinner" unicode="&#120;" d="M150 109c0-10-3-19-10-26-8-7-16-10-26-10-10 0-19 3-26 10-7 8-11 16-11 26 0 10 4 19 11 26 7 7 16 11 26 11 10 0 18-4 26-11 7-7 10-16 10-26z m143-59c0-10-4-18-11-26-7-7-16-10-26-10-10 0-19 3-26 10-7 8-11 16-11 26 0 10 4 19 11 26 7 7 16 11 26 11 10 0 19-4 26-11 7-7 11-16 11-26z m-202 201c0-10-3-18-10-25-7-8-16-11-26-11-10 0-19 3-26 11-7 7-11 15-11 25 0 11 4 19 11 26 7 7 16 11 26 11 10 0 19-4 26-11 7-7 10-15 10-26z m344-142c0-10-4-18-11-26-7-7-16-10-26-10-10 0-18 3-26 10-7 7-10 16-10 26 0 10 3 19 10 26 8 7 16 11 26 11 10 0 19-4 26-11 7-7 11-16 11-26z m-276 285c0-13-4-24-13-33-9-9-20-13-32-13-13 0-24 4-33 13-9 9-13 20-13 33 0 12 4 23 13 32 9 9 20 13 33 13 12 0 23-4 32-13 9-9 13-20 13-32z m335-143c0-10-4-18-11-25-7-8-16-11-26-11-10 0-19 3-26 11-7 7-10 15-10 25 0 11 3 19 10 26 7 7 16 11 26 11 10 0 19-4 26-11 7-7 11-15 11-26z m-183 202c0-16-5-29-16-39-11-11-24-16-39-16-15 0-28 5-39 16-11 10-16 23-16 39 0 15 5 28 16 38 11 11 24 16 39 16 15 0 28-5 39-16 11-10 16-23 16-38z m151-59c0-18-6-33-19-46-12-12-27-18-45-18-17 0-33 6-45 18-12 13-19 28-19 46 0 17 7 32 19 45 12 12 28 19 45 19 18 0 33-7 45-19 13-13 19-28 19-45z"/>
<glyph glyph-name="close" unicode="&#65;" d="M365 187c0 5-2 9-6 13l-51 51 51 52c4 4 6 8 6 13 0 5-2 10-6 13l-25 26c-4 3-8 5-13 5-5 0-10-2-13-5l-52-52-52 52c-3 3-8 5-13 5-5 0-9-2-13-5l-25-26c-4-3-6-8-6-13 0-5 2-9 6-13l51-52-51-51c-4-4-6-8-6-13 0-5 2-10 6-13l25-26c4-4 8-5 13-5 5 0 10 1 13 5l52 52 52-52c3-4 8-5 13-5 5 0 9 1 13 5l25 26c4 3 6 8 6 13z m110 64c0-39-9-76-29-110-20-33-46-60-80-80-34-19-70-29-110-29-40 0-77 10-110 29-34 20-60 47-80 80-20 34-29 71-29 110 0 40 9 77 29 111 20 33 46 60 80 79 33 20 70 30 110 30 40 0 76-10 110-30 34-19 60-46 80-79 20-34 29-71 29-111z"/>
<glyph glyph-name="location" unicode="&#66;" d="M329 325c0 20-7 37-21 51-15 15-32 22-52 22-20 0-37-7-52-22-14-14-21-31-21-51 0-21 7-38 21-52 15-14 32-22 52-22 20 0 37 8 52 22 14 14 21 31 21 52z m73 0c0-21-3-38-9-52l-104-221c-3-6-8-11-14-15-6-3-12-5-19-5-7 0-13 2-19 5-6 4-11 9-14 15l-104 221c-6 14-9 31-9 52 0 40 14 74 43 103 28 29 63 43 103 43 40 0 75-14 103-43 29-29 43-63 43-103z"/>
<glyph glyph-name="camera" unicode="&#67;" d="M256 311c21 0 39-7 54-22 15-15 23-33 23-54 0-21-8-40-23-55-15-15-33-22-54-22-21 0-39 7-54 22-15 15-23 34-23 55 0 21 8 39 23 54 15 15 33 22 54 22z m188 111c19 0 35-6 48-20 13-13 20-29 20-48l0-239c0-19-7-35-20-48-13-13-29-20-48-20l-376 0c-19 0-35 7-48 20-13 13-20 29-20 48l0 239c0 19 7 35 20 48 13 14 29 20 48 20l60 0 14 37c3 8 9 16 18 22 9 7 18 10 28 10l136 0c10 0 19-3 28-10 9-6 15-14 18-22l14-37z m-188-307c33 0 61 12 84 35 24 24 36 52 36 85 0 33-12 61-36 84-23 23-51 35-84 35-33 0-61-12-84-35-24-23-35-51-35-84 0-33 11-61 35-85 23-23 51-35 84-35z"/>
<glyph glyph-name="hammer" unicode="&#70;" d="M505 98l-151 150c-9 10-24 10-34 0l-11-11-92 92 151 151-160 0-71-71-7 7-34 0 0-34 7-7-103-103 80-80 103 103 92-92-11-11c-10-10-10-25 0-34l150-151c10-9 25-9 34 0l57 57c9 9 9 24 0 34z"/>
<glyph glyph-name="spinner-2" unicode="&#72;" d="M512 256c-1 33-8 67-21 97-14 31-33 58-57 81-24 23-52 41-82 53-31 12-64 18-96 17-32-1-65-8-94-21-30-13-56-31-79-54-22-24-39-51-51-80-11-30-17-62-16-93 1-31 7-63 20-91 13-29 31-55 53-76 22-21 49-38 77-49 29-11 60-17 90-16 30 1 60 7 88 19 28 13 53 30 73 52 21 21 37 47 48 74 6 17 11 35 13 52 1 0 1 0 2 0 18 0 32 15 32 32 0 1 0 2 0 3z m-51-85c-12-27-29-51-49-71-21-19-46-35-73-45-26-11-55-16-83-15-28 1-56 7-82 18-26 12-49 28-68 48-19 20-34 44-44 70-10 25-15 53-14 80 1 27 7 54 18 79 11 24 26 47 46 65 19 19 42 33 67 43 24 9 51 14 77 13 26-1 52-6 76-17 23-11 45-26 63-44 17-19 31-41 40-65 9-23 14-49 13-74l0 0c0-1 0-2 0-3 0-16 12-30 29-31-4-18-9-35-16-51z"/>
<glyph glyph-name="spinner-3" unicode="&#73;" d="M208 48c0 27 21 48 48 48 27 0 48-21 48-48 0-27-21-48-48-48-27 0-48 21-48 48z m-208 208c0 27 21 48 48 48 27 0 48-21 48-48 0-27-21-48-48-48-27 0-48 21-48 48z m416 0c0 27 21 48 48 48 27 0 48-21 48-48 0-27-21-48-48-48-27 0-48 21-48 48z m-355 147c0 27 21 48 48 48 26 0 48-21 48-48 0-26-22-48-48-48-27 0-48 22-48 48z m294-294c0 26 22 48 48 48 27 0 48-22 48-48 0-27-21-48-48-48-26 0-48 21-48 48z m-294 0c0 26 21 48 48 48 26 0 48-22 48-48 0-27-22-48-48-48-27 0-48 21-48 48z m294 294c0 27 22 48 48 48 27 0 48-21 48-48 0-26-21-48-48-48-26 0-48 22-48 48z"/>
<glyph glyph-name="google" unicode="&#74;" d="M256 512c-141 0-256-115-256-256 0-141 115-256 256-256 141 0 256 115 256 256 0 141-115 256-256 256z m4-448c-106 0-192 86-192 192 0 106 86 192 192 192 52 0 95-19 128-50l-52-50c-14 13-39 29-76 29-66 0-119-54-119-121 0-67 53-121 119-121 76 0 104 54 109 83l-109 0 0 65 181 0c2-9 3-19 3-31 0-110-73-188-184-188z"/>
<glyph glyph-name="alarm" unicode="&#75;" d="M256 448c-124 0-224-100-224-224 0-124 100-224 224-224 124 0 224 100 224 224 0 124-100 224-224 224z m0-404c-99 0-180 81-180 180 0 99 81 180 180 180 99 0 180-81 180-180 0-99-81-180-180-180z m211 324c8 14 13 31 13 48 0 53-43 96-96 96-31 0-58-15-76-37 66-14 123-53 159-107z m-263 107c-18 22-45 37-76 37-53 0-96-43-96-96 0-17 5-34 13-48 36 54 93 93 159 107z m52-251l0 128-32 0 0-160 128 0 0 32z"/>
<glyph glyph-name="location-1" unicode="&#76;" d="M256 512c-88 0-160-72-160-160 0-160 160-352 160-352 0 0 160 192 160 352 0 88-72 160-160 160z m0-258c-54 0-98 44-98 98 0 54 44 98 98 98 54 0 98-44 98-98 0-54-44-98-98-98z m-62 98c0 34 28 62 62 62 34 0 62-28 62-62 0-34-28-62-62-62-34 0-62 28-62 62z"/>
<glyph glyph-name="truck-1" unicode="&#77;" d="M512 224l-64 128-96 0 0 64c0 18-14 32-32 32l-288 0c-18 0-32-14-32-32l0-256 32-32 41 0c-6-9-9-20-9-32 0-35 29-64 64-64 35 0 64 29 64 64 0 12-3 23-9 32l178 0c-6-9-9-20-9-32 0-35 29-64 64-64 35 0 64 29 64 64 0 12-3 23-9 32l41 0z m-160 0l0 96 66 0 48-96z"/>
<glyph glyph-name="delete-1" unicode="&#78;" d="M64 352l0-320c0-18 14-32 32-32l288 0c18 0 32 14 32 32l0 320z m96-288l-32 0 0 224 32 0z m64 0l-32 0 0 224 32 0z m64 0l-32 0 0 224 32 0z m64 0l-32 0 0 224 32 0z m72 384l-104 0 0 40c0 13-11 24-24 24l-112 0c-13 0-24-11-24-24l0-40-104 0c-13 0-24-11-24-24l0-40 416 0 0 40c0 13-11 24-24 24z m-136 0l-96 0 0 32 96 0z"/>
<glyph glyph-name="close-1" unicode="&#79;" d="M507 101c0 0 0 0 0 0l-155 155 155 155c0 0 0 0 0 0 2 2 3 4 4 6 2 6 1 12-4 17l-73 73c-5 5-11 6-17 4-2-1-4-2-6-4 0 0 0 0 0 0l-155-155-155 155c0 0 0 0 0 0-2 2-4 3-6 4-6 2-12 1-17-4l-73-73c-5-5-6-11-4-17 1-2 2-4 4-6 0 0 0 0 0 0l155-155-155-155c0 0 0 0 0 0-2-2-3-4-4-6-2-6-1-12 4-17l73-73c5-5 11-6 17-4 2 1 4 2 6 4 0 0 0 0 0 0l155 155 155-155c0 0 0 0 0 0 2-2 4-3 6-4 6-2 12-1 17 4l73 73c5 5 6 11 4 17-1 2-2 4-4 6z"/>
<glyph glyph-name="google-1" unicode="&#80;" d="M261 293l0-88 145 0c-6-38-44-111-145-111-87 0-159 73-159 162 0 89 72 162 159 162 50 0 83-22 102-40l70 67c-45 42-103 67-172 67-141 0-256-115-256-256 0-142 115-256 256-256 148 0 246 104 246 250 0 17-2 30-4 42z"/>
<glyph glyph-name="fb-icon" unicode="&#81;" d="M304 416l80 0 0 96-80 0c-62 0-112-50-112-112l0-48-64 0 0-96 64 0 0-256 96 0 0 256 80 0 16 96-96 0 0 48c0 9 7 16 16 16z"/>
<glyph glyph-name="fb-icon-1" unicode="&#83;" d="M464 512l-416 0c-26 0-48-22-48-48l0-416c0-26 22-48 48-48l208 0 0 224-64 0 0 64 64 0 0 32c0 53 43 96 96 96l64 0 0-64-64 0c-18 0-32-14-32-32l0-32 96 0-16-64-80 0 0-224 144 0c26 0 48 22 48 48l0 416c0 26-22 48-48 48z"/>
<glyph glyph-name="whatsapp" unicode="&#84;" d="M437 438c-48 48-112 74-180 74-140 0-254-114-254-254 0-44 12-88 34-127l-36-131 135 35c37-20 79-31 121-31l0 0c140 0 254 114 254 254 0 68-27 132-74 180z m-180-391c-38 0-75 10-107 30l-8 4-80-21 22 78-5 8c-22 34-33 72-33 112 0 117 95 211 211 211 57 0 110-22 149-62 40-40 62-92 62-149 0-116-95-211-211-211z m116 158c-7 3-38 19-44 21-5 2-10 3-14-3-4-7-16-21-20-25-4-5-7-5-14-2-6 3-26 10-51 32-18 16-31 37-35 43-4 7 0 10 3 13 3 3 6 8 9 11 4 4 5 7 7 11 2 4 1 8-1 11-1 3-14 35-19 47-5 13-11 11-15 11-3 0-8 0-12 0-4 0-11-1-17-8-5-6-22-21-22-52 0-32 23-62 26-66 3-4 45-68 108-96 15-6 27-10 36-13 16-5 29-4 40-3 13 2 38 16 43 30 5 15 5 28 4 31-2 2-6 4-12 7z"/>
<glyph glyph-name="bed" unicode="&#87;" d="M64 220l432 0c4 0 8-2 11-5 4-3 5-7 5-11l0-112-64 0 0 64-384 0 0-64-64 0 0 304c0 4 2 8 5 11 3 3 7 5 11 5l32 0c4 0 8-2 11-5 3-3 5-7 5-11z m144 80c0 18-6 33-19 45-12 13-27 19-45 19-18 0-33-6-45-19-13-12-19-27-19-45 0-18 6-33 19-45 12-13 27-19 45-19 18 0 33 6 45 19 13 12 19 27 19 45z m304-64l0 16c0 27-9 49-28 68-19 19-41 28-68 28l-176 0c-4 0-8-2-11-5-3-3-5-7-5-11l0-96z"/>
<glyph glyph-name="ie" unicode="&#109;" d="M367 198l118 0c1 8 1 16 1 25 0 40-10 77-29 110 19 51 19 95-7 122-25 24-92 20-167-13-5 0-11 1-16 1-103 0-190-71-214-167 33 41 67 71 112 93-4-4-28-27-32-32-120-119-158-276-117-316 31-31 87-26 151 5 30-15 64-23 100-23 96 0 178 62 208 148l-119 0c-17-30-49-50-85-50-37 0-69 20-86 50-7 14-11 30-11 46l0 1z m-193 58c3 48 43 87 93 87 49 0 89-39 92-87z m274 174c17-17 17-48 2-87-24 38-60 67-102 84 45 19 82 22 100 3z m-401-402c-22 22-15 67 12 121 18-48 51-89 94-115-48-21-87-25-106-6z"/>
</font>
</defs>
</svg>
